<svg width="168" height="66" viewBox="0 0 168 66" fill="none" xmlns="http://www.w3.org/2000/svg">
<path d="M1.24997 0.99999C1.24997 0.861919 1.13804 0.749991 0.999966 0.749993C0.861895 0.749994 0.749968 0.861925 0.749969 0.999996L1.24997 0.99999ZM164.5 65.5L166.033 63.0537L163.148 62.9496L164.5 65.5ZM0.772115 2.55952C0.776078 2.69753 0.891173 2.8062 1.02919 2.80224C1.1672 2.79827 1.27587 2.68318 1.27191 2.54517L0.772115 2.55952ZM1.44542 5.50822C1.43307 5.3707 1.31157 5.26924 1.17405 5.28159C1.03654 5.29395 0.935071 5.41544 0.947426 5.55296L1.44542 5.50822ZM1.31031 8.48816C1.33202 8.62452 1.46015 8.71746 1.5965 8.69576C1.73286 8.67405 1.8258 8.54592 1.8041 8.40957L1.31031 8.48816ZM2.38366 11.3233C2.35132 11.1891 2.21628 11.1065 2.08205 11.1388C1.94783 11.1712 1.86523 11.3062 1.89758 11.4404L2.38366 11.3233ZM2.71697 14.2981C2.76087 14.429 2.90258 14.4995 3.03349 14.4556C3.16439 14.4117 3.23492 14.27 3.19102 14.1391L2.71697 14.2981ZM4.25955 16.8834C4.20319 16.7573 4.05532 16.7008 3.92927 16.7572C3.80323 16.8136 3.74674 16.9614 3.8031 17.0875L4.25955 16.8834ZM5.16605 19.7555C5.23527 19.875 5.38824 19.9157 5.5077 19.8465C5.62716 19.7773 5.66789 19.6243 5.59867 19.5048L5.16605 19.7555ZM7.19862 21.9502C7.11682 21.8389 6.96034 21.8151 6.84911 21.8969C6.73788 21.9787 6.71402 22.1352 6.79583 22.2464L7.19862 21.9502ZM8.70909 24.5654C8.80274 24.6669 8.9609 24.6732 9.06236 24.5796C9.16382 24.4859 9.17015 24.3277 9.07651 24.2263L8.70909 24.5654ZM11.1813 26.2718C11.0773 26.181 10.9194 26.1917 10.8286 26.2958C10.7378 26.3998 10.7485 26.5577 10.8525 26.6485L11.1813 26.2718ZM13.2098 28.5008C13.3225 28.5805 13.4786 28.5538 13.5583 28.4411C13.638 28.3284 13.6113 28.1724 13.4986 28.0926L13.2098 28.5008ZM15.9724 29.6729C15.8527 29.604 15.6999 29.6451 15.6309 29.7647C15.562 29.8843 15.6031 30.0372 15.7227 30.1061L15.9724 29.6729ZM18.3954 31.4971C18.5204 31.5557 18.6692 31.5019 18.7279 31.3769C18.7865 31.2519 18.7327 31.103 18.6077 31.0444L18.3954 31.4971ZM21.3034 32.1875C21.1744 32.1382 21.0299 32.2028 20.9806 32.3318C20.9313 32.4607 20.9959 32.6052 21.1249 32.6545L21.3034 32.1875ZM23.961 33.6313C24.0929 33.6721 24.2329 33.5982 24.2737 33.4663C24.3144 33.3344 24.2405 33.1944 24.1086 33.1536L23.961 33.6313ZM26.95 33.9418C26.8159 33.9086 26.6804 33.9904 26.6472 34.1244C26.614 34.2584 26.6957 34.394 26.8298 34.4272L26.95 33.9418ZM29.7466 35.0708C29.8821 35.0972 30.0134 35.0088 30.0398 34.8732C30.0662 34.7377 29.9778 34.6064 29.8423 34.58L29.7466 35.0708ZM32.7616 35.0816C32.6251 35.0612 32.4978 35.1553 32.4774 35.2918C32.4569 35.4284 32.5511 35.5557 32.6876 35.5761L32.7616 35.0816ZM35.6428 35.9589C35.78 35.974 35.9035 35.875 35.9187 35.7378C35.9338 35.6005 35.8348 35.477 35.6976 35.4619L35.6428 35.9589ZM38.6515 35.7352C38.5138 35.7248 38.3938 35.828 38.3834 35.9656C38.373 36.1033 38.4762 36.2234 38.6139 36.2338L38.6515 35.7352ZM41.5883 36.4118C41.7263 36.418 41.8431 36.3112 41.8493 36.1733C41.8555 36.0354 41.7487 35.9185 41.6107 35.9123L41.5883 36.4118ZM44.5737 36.0039C44.4357 36.0015 44.3218 36.1115 44.3194 36.2495C44.317 36.3876 44.4269 36.5014 44.565 36.5039L44.5737 36.0039ZM47.5501 36.5188C47.6882 36.5178 47.7993 36.4051 47.7983 36.267C47.7974 36.129 47.6846 36.0178 47.5466 36.0188L47.5501 36.5188ZM50.5052 35.9649C50.3672 35.9689 50.2585 36.084 50.2626 36.222C50.2666 36.36 50.3817 36.4687 50.5197 36.4647L50.5052 35.9649ZM53.5102 36.3474C53.6481 36.3406 53.7544 36.2233 53.7477 36.0854C53.7409 35.9475 53.6236 35.8412 53.4857 35.848L53.5102 36.3474ZM56.4343 35.6763C56.2965 35.6855 56.1923 35.8047 56.2016 35.9425C56.2108 36.0802 56.33 36.1844 56.4678 36.1752L56.4343 35.6763ZM59.4574 35.9495C59.595 35.938 59.6972 35.8171 59.6857 35.6795C59.6742 35.5419 59.5533 35.4397 59.4157 35.4512L59.4574 35.9495ZM62.3546 35.1831C62.2172 35.1966 62.1168 35.319 62.1303 35.4564C62.1439 35.5938 62.2662 35.6942 62.4037 35.6807L62.3546 35.1831ZM65.3716 35.3673C65.5088 35.3519 65.6075 35.2282 65.5921 35.0909C65.5767 34.9537 65.4529 34.855 65.3157 34.8704L65.3716 35.3673ZM68.2618 34.5206C68.1248 34.5377 68.0276 34.6627 68.0447 34.7997C68.0618 34.9367 68.1868 35.0339 68.3238 35.0168L68.2618 34.5206ZM71.2739 34.631C71.4107 34.6124 71.5065 34.4863 71.4878 34.3495C71.4691 34.2127 71.3431 34.117 71.2063 34.1356L71.2739 34.631ZM74.1523 33.7179C74.0157 33.738 73.9212 33.865 73.9413 34.0016C73.9614 34.1382 74.0884 34.2327 74.225 34.2126L74.1523 33.7179ZM77.1629 33.7665C77.2993 33.7451 77.3926 33.6172 77.3712 33.4808C77.3498 33.3444 77.2219 33.2511 77.0855 33.2725L77.1629 33.7665ZM80.0224 32.7994C79.8861 32.8219 79.794 32.9506 79.8165 33.0868C79.839 33.2231 79.9677 33.3152 80.104 33.2927L80.0224 32.7994ZM83.0366 32.7956C83.1726 32.772 83.2638 32.6426 83.2402 32.5066C83.2166 32.3705 83.0872 32.2794 82.9511 32.303L83.0366 32.7956ZM85.8759 31.7849C85.74 31.8094 85.6498 31.9395 85.6743 32.0754C85.6989 32.2112 85.8289 32.3015 85.9648 32.2769L85.8759 31.7849ZM88.893 31.738C89.0287 31.7126 89.1181 31.5819 89.0927 31.4462C89.0673 31.3105 88.9366 31.2211 88.8009 31.2465L88.893 31.738ZM91.7207 30.691C91.5852 30.7171 91.4965 30.8483 91.5227 30.9838C91.5489 31.1194 91.68 31.2081 91.8156 31.1819L91.7207 30.691ZM94.7303 30.6112C94.8657 30.5844 94.9538 30.4528 94.9269 30.3174C94.9 30.1819 94.7685 30.0939 94.633 30.1208L94.7303 30.6112ZM97.5554 29.5344C97.4201 29.5619 97.3326 29.6938 97.3601 29.8291C97.3875 29.9645 97.5195 30.0519 97.6548 30.0245L97.5554 29.5344ZM100.556 29.4302C100.692 29.4022 100.779 29.27 100.751 29.1347C100.723 28.9995 100.591 28.9126 100.455 28.9405L100.556 29.4302ZM103.379 28.3315C103.244 28.3598 103.158 28.4923 103.186 28.6275C103.214 28.7626 103.347 28.8492 103.482 28.8208L103.379 28.3315ZM106.384 28.2082C106.519 28.1795 106.606 28.0468 106.577 27.9117C106.548 27.7767 106.416 27.6904 106.28 27.7191L106.384 28.2082ZM109.193 27.0982C109.058 27.1271 108.972 27.26 109.001 27.395C109.03 27.53 109.163 27.616 109.298 27.5871L109.193 27.0982ZM112.207 26.9635C112.342 26.9345 112.428 26.8015 112.399 26.6665C112.37 26.5315 112.237 26.4456 112.102 26.4746L112.207 26.9635ZM115.002 25.8517C114.867 25.8807 114.781 26.0136 114.81 26.1486C114.839 26.2836 114.972 26.3695 115.107 26.3405L115.002 25.8517ZM118.027 25.7146C118.162 25.6857 118.248 25.5529 118.219 25.4179C118.19 25.2828 118.057 25.1968 117.922 25.2256L118.027 25.7146ZM120.81 24.611C120.675 24.6396 120.589 24.7723 120.618 24.9073C120.646 25.0424 120.779 25.1287 120.914 25.1002L120.81 24.611ZM123.848 24.4837C123.983 24.4556 124.07 24.3232 124.042 24.188C124.013 24.0528 123.881 23.9661 123.746 23.9942L123.848 24.4837ZM126.631 23.3999C126.495 23.4274 126.408 23.5594 126.436 23.6947C126.463 23.83 126.595 23.9174 126.73 23.8899L126.631 23.3999ZM129.675 23.3002C129.811 23.2735 129.899 23.1421 129.872 23.0066C129.846 22.8711 129.714 22.7829 129.579 22.8096L129.675 23.3002ZM132.477 22.2519C132.341 22.2773 132.252 22.408 132.277 22.5437C132.303 22.6794 132.434 22.7688 132.569 22.7433L132.477 22.2519ZM135.513 22.2074C135.649 22.1835 135.74 22.0539 135.716 21.9179C135.692 21.7819 135.562 21.6911 135.426 21.715L135.513 22.2074ZM138.362 21.2212C138.226 21.243 138.133 21.3712 138.155 21.5075C138.176 21.6439 138.305 21.7367 138.441 21.7149L138.362 21.2212ZM141.35 21.2792C141.487 21.2602 141.582 21.134 141.563 20.9972C141.544 20.8604 141.418 20.7649 141.281 20.7839L141.35 21.2792ZM144.279 20.4105C144.142 20.4255 144.043 20.5488 144.058 20.6861C144.073 20.8233 144.196 20.9225 144.333 20.9076L144.279 20.4105ZM147.277 20.6467C147.415 20.6377 147.519 20.5186 147.51 20.3808C147.501 20.2431 147.382 20.1387 147.244 20.1478L147.277 20.6467ZM150.2 20.0433C150.062 20.0432 149.95 20.1551 149.95 20.2932C149.95 20.4313 150.062 20.5432 150.2 20.5433L150.2 20.0433ZM153.126 20.698C153.263 20.7142 153.388 20.6163 153.404 20.4792C153.42 20.342 153.322 20.2177 153.185 20.2014L153.126 20.698ZM156.168 20.9019C156.04 20.8504 155.894 20.9123 155.843 21.0404C155.791 21.1685 155.853 21.3141 155.981 21.3657L156.168 20.9019ZM158.324 22.9358C158.43 23.025 158.587 23.0121 158.677 22.9067C158.766 22.8014 158.753 22.6437 158.648 22.5544L158.324 22.9358ZM160.779 24.6002C160.686 24.4985 160.528 24.4917 160.426 24.5851C160.324 24.6785 160.318 24.8366 160.411 24.9383L160.779 24.6002ZM162.219 27.1881C162.298 27.3013 162.454 27.3288 162.567 27.2497C162.68 27.1705 162.708 27.0146 162.628 26.9015L162.219 27.1881ZM164.157 29.4286C164.093 29.306 163.942 29.2581 163.82 29.3216C163.697 29.3851 163.649 29.5359 163.713 29.6586L164.157 29.4286ZM164.876 32.3049C164.923 32.4345 165.067 32.501 165.197 32.4534C165.326 32.4057 165.393 32.2621 165.345 32.1325L164.876 32.3049ZM166.201 34.9566C166.168 34.8225 166.033 34.7402 165.899 34.7729C165.765 34.8056 165.683 34.9408 165.715 35.0749L166.201 34.9566ZM166.259 37.9219C166.278 38.0586 166.405 38.1537 166.542 38.1343C166.678 38.1149 166.773 37.9884 166.754 37.8517L166.259 37.9219ZM167.044 40.7813C167.036 40.6435 166.917 40.5383 166.78 40.5464C166.642 40.5545 166.537 40.6728 166.545 40.8107L167.044 40.7813ZM166.614 43.7169C166.612 43.855 166.723 43.9679 166.861 43.9692C166.999 43.9704 167.112 43.8595 167.113 43.7214L166.614 43.7169ZM167.004 46.6574C167.013 46.5196 166.909 46.4008 166.771 46.3921C166.633 46.3834 166.514 46.488 166.505 46.6258L167.004 46.6574ZM166.258 49.5294C166.243 49.6667 166.343 49.7898 166.48 49.8042C166.617 49.8187 166.74 49.7191 166.755 49.5818L166.258 49.5294ZM166.401 52.4927C166.42 52.3559 166.324 52.2299 166.187 52.2113C166.05 52.1927 165.924 52.2886 165.906 52.4254L166.401 52.4927ZM165.484 55.3158C165.463 55.4523 165.557 55.5799 165.694 55.6008C165.83 55.6217 165.958 55.528 165.979 55.3916L165.484 55.3158ZM165.529 58.2824C165.55 58.1459 165.456 58.0182 165.32 57.9971C165.183 57.9759 165.056 58.0694 165.034 58.2058L165.529 58.2824ZM164.611 61.1014C164.592 61.2383 164.689 61.364 164.825 61.3822C164.962 61.4004 165.088 61.3041 165.106 61.1673L164.611 61.1014ZM164.802 64.064C164.811 63.9263 164.707 63.8072 164.569 63.798C164.431 63.7888 164.312 63.8931 164.303 64.0308L164.802 64.064ZM0.749969 0.999996C0.749976 1.52689 0.75739 2.04671 0.772115 2.55952L1.27191 2.54517C1.25732 2.03723 1.24998 1.5222 1.24997 0.99999L0.749969 0.999996ZM0.947426 5.55296C1.03796 6.56067 1.15921 7.53883 1.31031 8.48816L1.8041 8.40957C1.65485 7.47189 1.53497 6.50502 1.44542 5.50822L0.947426 5.55296ZM1.89758 11.4404C2.13541 12.4274 2.40893 13.3796 2.71697 14.2981L3.19102 14.1391C2.88774 13.2348 2.61819 12.2965 2.38366 11.3233L1.89758 11.4404ZM3.8031 17.0875C4.2182 18.0158 4.67305 18.9047 5.16605 19.7555L5.59867 19.5048C5.11455 18.6694 4.66763 17.796 4.25955 16.8834L3.8031 17.0875ZM6.79583 22.2464C7.39408 23.0599 8.03248 23.8324 8.70909 24.5654L9.07651 24.2263C8.41235 23.5067 7.78578 22.7485 7.19862 21.9502L6.79583 22.2464ZM10.8525 26.6485C11.6029 27.3034 12.3893 27.9204 13.2098 28.5008L13.4986 28.0926C12.6915 27.5217 11.9185 26.9152 11.1813 26.2718L10.8525 26.6485ZM15.7227 30.1061C16.5838 30.6024 17.4753 31.0656 18.3954 31.4971L18.6077 31.0444C17.6997 30.6186 16.8207 30.1618 15.9724 29.6729L15.7227 30.1061ZM21.1249 32.6545C22.0467 33.0069 22.9925 33.3321 23.961 33.6313L24.1086 33.1536C23.15 32.8574 22.2145 32.5357 21.3034 32.1875L21.1249 32.6545ZM26.8298 34.4272C27.7836 34.6634 28.7562 34.8776 29.7466 35.0708L29.8423 34.58C28.8597 34.3883 27.8952 34.1759 26.95 33.9418L26.8298 34.4272ZM32.6876 35.5761C33.6582 35.7214 34.6436 35.8487 35.6428 35.9589L35.6976 35.4619C34.7045 35.3524 33.7255 35.2259 32.7616 35.0816L32.6876 35.5761ZM38.6139 36.2338C39.594 36.3078 40.5858 36.3669 41.5883 36.4118L41.6107 35.9123C40.6131 35.8676 39.6264 35.8088 38.6515 35.7352L38.6139 36.2338ZM44.565 36.5039C45.5511 36.5211 46.5465 36.5259 47.5501 36.5188L47.5466 36.0188C46.5468 36.0259 45.5556 36.0211 44.5737 36.0039L44.565 36.5039ZM50.5197 36.4647C51.5097 36.4359 52.5068 36.3966 53.5102 36.3474L53.4857 35.848C52.4855 35.8971 51.4917 35.9362 50.5052 35.9649L50.5197 36.4647ZM56.4678 36.1752C57.4592 36.1087 58.456 36.0333 59.4574 35.9495L59.4157 35.4512C58.4169 35.5348 57.4229 35.61 56.4343 35.6763L56.4678 36.1752ZM62.4037 35.6807C63.3894 35.5835 64.3789 35.4788 65.3716 35.3673L65.3157 34.8704C64.3252 34.9817 63.338 35.0861 62.3546 35.1831L62.4037 35.6807ZM68.3238 35.0168C69.305 34.8942 70.2885 34.7655 71.2739 34.631L71.2063 34.1356C70.2227 34.2698 69.241 34.3983 68.2618 34.5206L68.3238 35.0168ZM74.225 34.2126C75.2034 34.0688 76.1829 33.9199 77.1629 33.7665L77.0855 33.2725C76.107 33.4257 75.129 33.5744 74.1523 33.7179L74.225 34.2126ZM80.104 33.2927C81.0818 33.1309 82.0595 32.9651 83.0366 32.7956L82.9511 32.303C81.9753 32.4722 80.9988 32.6379 80.0224 32.7994L80.104 33.2927ZM85.9648 32.2769C86.9423 32.1003 87.9186 31.9204 88.893 31.738L88.8009 31.2465C87.8275 31.4288 86.8523 31.6084 85.8759 31.7849L85.9648 32.2769ZM91.8156 31.1819C92.7898 30.9937 93.7616 30.8033 94.7303 30.6112L94.633 30.1208C93.6651 30.3127 92.6942 30.503 91.7207 30.691L91.8156 31.1819ZM97.6548 30.0245C98.626 29.8274 99.5935 29.6292 100.556 29.4302L100.455 28.9405C99.4928 29.1394 98.526 29.3376 97.5554 29.5344L97.6548 30.0245ZM103.482 28.8208C104.455 28.6167 105.423 28.4123 106.384 28.2082L106.28 27.7191C105.319 27.9231 104.352 28.1274 103.379 28.3315L103.482 28.8208ZM109.298 27.5871C110.275 27.3782 111.245 27.1701 112.207 26.9635L112.102 26.4746C111.14 26.6812 110.17 26.8893 109.193 27.0982L109.298 27.5871ZM115.107 26.3405C116.089 26.1294 117.063 25.9206 118.027 25.7146L117.922 25.2256C116.958 25.4317 115.985 25.6406 115.002 25.8517L115.107 26.3405ZM120.914 25.1002C121.904 24.8905 122.882 24.6848 123.848 24.4837L123.746 23.9942C122.78 24.1954 121.801 24.4013 120.81 24.611L120.914 25.1002ZM126.73 23.8899C127.728 23.6869 128.71 23.49 129.675 23.3002L129.579 22.8096C128.613 22.9996 127.629 23.1967 126.631 23.3999L126.73 23.8899ZM132.569 22.7433C133.572 22.555 134.554 22.376 135.513 22.2074L135.426 21.715C134.465 21.8839 133.481 22.0633 132.477 22.2519L132.569 22.7433ZM138.441 21.7149C139.44 21.5552 140.41 21.4094 141.35 21.2792L141.281 20.7839C140.338 20.9147 139.364 21.061 138.362 21.2212L138.441 21.7149ZM144.333 20.9076C145.362 20.7959 146.344 20.7081 147.277 20.6467L147.244 20.1478C146.303 20.2097 145.314 20.2981 144.279 20.4105L144.333 20.9076ZM150.2 20.5433C151.269 20.5437 152.247 20.5936 153.126 20.698L153.185 20.2014C152.282 20.0943 151.284 20.0437 150.2 20.0433L150.2 20.5433ZM155.981 21.3657C156.448 21.5538 156.851 21.7747 157.189 22.029L157.489 21.6294C157.11 21.3443 156.668 21.1033 156.168 20.9019L155.981 21.3657ZM157.189 22.029C157.582 22.3252 157.961 22.6276 158.324 22.9358L158.648 22.5544C158.277 22.2399 157.891 21.9314 157.489 21.6294L157.189 22.029ZM160.411 24.9383C161.078 25.6648 161.679 26.4159 162.219 27.1881L162.628 26.9015C162.076 26.1114 161.461 25.343 160.779 24.6002L160.411 24.9383ZM163.713 29.6586C164.16 30.5221 164.545 31.4056 164.876 32.3049L165.345 32.1325C165.008 31.2145 164.614 30.3117 164.157 29.4286L163.713 29.6586ZM165.715 35.0749C165.944 36.0136 166.123 36.9641 166.259 37.9219L166.754 37.8517C166.616 36.879 166.434 35.9124 166.201 34.9566L165.715 35.0749ZM166.545 40.8107C166.601 41.7782 166.622 42.7485 166.614 43.7169L167.113 43.7214C167.122 42.7429 167.101 41.7613 167.044 40.7813L166.545 40.8107ZM166.505 46.6258C166.444 47.602 166.359 48.5714 166.258 49.5294L166.755 49.5818C166.857 48.618 166.942 47.6415 167.004 46.6574L166.505 46.6258ZM165.906 52.4254C165.772 53.4092 165.629 54.3745 165.484 55.3158L165.979 55.3916C166.123 54.4487 166.267 53.4804 166.401 52.4927L165.906 52.4254ZM165.034 58.2058C164.879 59.2123 164.733 60.1807 164.611 61.1014L165.106 61.1673C165.228 60.252 165.373 59.288 165.529 58.2824L165.034 58.2058Z" fill="#0366D6"/>
</svg>