<svg width="443" height="152" viewBox="0 0 443 152" fill="none" xmlns="http://www.w3.org/2000/svg">
<path d="M91.7626 1.405C91.9863 1.405 92.1676 1.22368 92.1676 1C92.1676 0.776325 91.9863 0.595 91.7626 0.595V1.405ZM442.263 146.696L438.214 144.356L438.212 149.033L442.263 146.696ZM85.6931 0.928339C85.4707 0.95142 85.309 1.15049 85.3321 1.37297C85.3552 1.59545 85.5542 1.7571 85.7767 1.73401L85.6931 0.928339ZM73.9025 3.84739C74.1198 3.79457 74.2532 3.57556 74.2004 3.35821C74.1476 3.14086 73.9286 3.00747 73.7112 3.06029L73.9025 3.84739ZM61.9782 6.54054C61.7669 6.614 61.6552 6.84482 61.7286 7.05609C61.8021 7.26735 62.0329 7.37907 62.2442 7.3056L61.9782 6.54054ZM50.9678 11.7642C51.1722 11.6735 51.2645 11.4342 51.1738 11.2297C51.0831 11.0253 50.8438 10.933 50.6394 11.0237L50.9678 11.7642ZM39.6983 16.4203C39.5019 16.5275 39.4297 16.7736 39.5369 16.9699C39.6441 17.1662 39.8901 17.2385 40.0864 17.1313L39.6983 16.4203ZM29.72 23.4078C29.9057 23.2831 29.9551 23.0315 29.8303 22.8458C29.7056 22.6602 29.4539 22.6108 29.2683 22.7355L29.72 23.4078ZM19.5132 30.0949C19.343 30.2401 19.3228 30.4957 19.4679 30.6659C19.6131 30.8361 19.8687 30.8563 20.0389 30.7112L19.5132 30.0949ZM11.4472 39.2238C11.5922 39.0535 11.5717 38.7979 11.4013 38.6529C11.231 38.5079 10.9754 38.5285 10.8304 38.6988L11.4472 39.2238ZM4.01247 48.846C3.91343 49.0466 3.99572 49.2895 4.19627 49.3885C4.39682 49.4875 4.63969 49.4053 4.73873 49.2047L4.01247 48.846ZM1.47255 60.6457C1.48866 60.4226 1.32087 60.2287 1.09778 60.2126C0.874683 60.1965 0.680768 60.3643 0.664657 60.5874L1.47255 60.6457ZM2.60892 72.6428C2.693 72.8501 2.92919 72.9499 3.13646 72.8658C3.34373 72.7817 3.44359 72.5455 3.3595 72.3383L2.60892 72.6428ZM9.74274 82.3593C9.59487 82.1915 9.33895 82.1753 9.17113 82.3232C9.0033 82.471 8.98712 82.727 9.13499 82.8948L9.74274 82.3593ZM18.1194 91.0632C18.2982 91.1975 18.5521 91.1614 18.6864 90.9825C18.8207 90.8036 18.7846 90.5498 18.6058 90.4154L18.1194 91.0632ZM28.7242 96.9758C28.5296 96.8655 28.2825 96.9339 28.1722 97.1285C28.0619 97.3231 28.1303 97.5703 28.3249 97.6805L28.7242 96.9758ZM39.1903 103.191C39.3938 103.284 39.634 103.194 39.7269 102.991C39.8198 102.787 39.7302 102.547 39.5267 102.454L39.1903 103.191ZM50.8616 107.178C50.6526 107.098 50.4186 107.203 50.3388 107.412C50.2591 107.621 50.3638 107.855 50.5728 107.935L50.8616 107.178ZM61.9432 111.955C62.1557 112.025 62.3846 111.909 62.4543 111.697C62.5241 111.484 62.4083 111.255 62.1958 111.186L61.9432 111.955ZM73.6952 114.713C73.4802 114.652 73.2559 114.776 73.1942 114.991C73.1325 115.206 73.2567 115.43 73.4717 115.492L73.6952 114.713ZM85.4934 118.731C85.7102 118.786 85.9305 118.655 85.9854 118.438C86.0402 118.221 85.909 118.001 85.6921 117.946L85.4934 118.731ZM97.1764 120.696C96.9582 120.646 96.7413 120.783 96.6919 121.001C96.6424 121.219 96.7792 121.436 96.9974 121.486L97.1764 120.696ZM109.216 124.106C109.436 124.151 109.649 124.009 109.694 123.79C109.738 123.571 109.597 123.357 109.377 123.312L109.216 124.106ZM120.96 125.551C120.74 125.51 120.529 125.656 120.489 125.876C120.448 126.096 120.594 126.307 120.814 126.347L120.96 125.551ZM132.968 128.475C133.189 128.511 133.397 128.362 133.434 128.142C133.471 127.921 133.322 127.712 133.101 127.676L132.968 128.475ZM144.993 129.566C144.772 129.532 144.566 129.684 144.532 129.906C144.499 130.127 144.651 130.333 144.872 130.367L144.993 129.566ZM156.817 132.097C157.038 132.128 157.243 131.973 157.273 131.751C157.304 131.53 157.149 131.325 156.928 131.295L156.817 132.097ZM169.355 132.936C169.133 132.908 168.931 133.065 168.903 133.287C168.875 133.509 169.032 133.711 169.254 133.739L169.355 132.936ZM180.914 135.146C181.136 135.172 181.337 135.012 181.363 134.79C181.389 134.568 181.229 134.367 181.007 134.341L180.914 135.146ZM193.134 135.68C192.911 135.657 192.712 135.818 192.688 136.041C192.665 136.263 192.826 136.463 193.049 136.486L193.134 135.68ZM205.435 137.735C205.657 137.757 205.855 137.594 205.877 137.371C205.898 137.148 205.735 136.95 205.512 136.929L205.435 137.735ZM217.243 138.011C217.02 137.991 216.823 138.156 216.804 138.379C216.784 138.601 216.949 138.798 217.171 138.818L217.243 138.011ZM229.308 139.841C229.531 139.859 229.726 139.693 229.744 139.47C229.762 139.247 229.596 139.052 229.373 139.034L229.308 139.841ZM241.909 139.997C241.686 139.98 241.492 140.148 241.475 140.371C241.459 140.594 241.627 140.788 241.85 140.804L241.909 139.997ZM253.578 141.624C253.801 141.639 253.994 141.47 254.009 141.247C254.024 141.024 253.855 140.831 253.632 140.816L253.578 141.624ZM265.648 141.581C265.424 141.567 265.233 141.737 265.219 141.96C265.205 142.184 265.375 142.376 265.599 142.389L265.648 141.581ZM277.963 143.101C278.186 143.113 278.377 142.942 278.389 142.719C278.401 142.495 278.23 142.304 278.007 142.292L277.963 143.101ZM290.234 142.926C290.01 142.915 289.82 143.087 289.809 143.311C289.799 143.534 289.971 143.724 290.194 143.735L290.234 142.926ZM302.027 144.286C302.25 144.296 302.439 144.123 302.449 143.899C302.459 143.676 302.286 143.487 302.062 143.477L302.027 144.286ZM314.183 143.981C313.96 143.973 313.772 144.147 313.763 144.37C313.754 144.594 313.928 144.782 314.152 144.791L314.183 143.981ZM326.572 145.248C326.796 145.256 326.983 145.081 326.991 144.857C326.999 144.634 326.824 144.446 326.6 144.439L326.572 145.248ZM338.767 144.831C338.544 144.825 338.357 145 338.35 145.224C338.344 145.448 338.519 145.634 338.743 145.641L338.767 144.831ZM350.596 145.973C350.82 145.979 351.006 145.803 351.012 145.579C351.018 145.355 350.841 145.17 350.618 145.164L350.596 145.973ZM362.721 145.455C362.497 145.45 362.312 145.627 362.307 145.851C362.302 146.074 362.48 146.259 362.703 146.264L362.721 145.455ZM375.065 146.513C375.289 146.517 375.474 146.339 375.478 146.116C375.482 145.892 375.304 145.707 375.08 145.703L375.065 146.513ZM387.495 145.906C387.271 145.903 387.087 146.082 387.084 146.305C387.08 146.529 387.259 146.713 387.483 146.716L387.495 145.906ZM399.268 146.867C399.492 146.87 399.675 146.69 399.678 146.467C399.68 146.243 399.501 146.06 399.277 146.057L399.268 146.867ZM411.281 146.171C411.057 146.17 410.874 146.35 410.872 146.573C410.871 146.797 411.05 146.98 411.274 146.981L411.281 146.171ZM423.502 147.058C423.725 147.059 423.908 146.879 423.909 146.655C423.91 146.431 423.729 146.249 423.505 146.248L423.502 147.058ZM435.954 146.287C435.73 146.286 435.549 146.467 435.548 146.691C435.548 146.915 435.729 147.096 435.953 147.097L435.954 146.287ZM91.7626 0.595C89.8436 0.595 87.8132 0.708394 85.6931 0.928339L85.7767 1.73401C87.8728 1.51656 89.8751 1.405 91.7626 1.405V0.595ZM73.7112 3.06029C69.9083 3.9844 65.968 5.15315 61.9782 6.54054L62.2442 7.3056C66.2114 5.92609 70.1267 4.7649 73.9025 3.84739L73.7112 3.06029ZM50.6394 11.0237C46.9423 12.6634 43.2723 14.4689 39.6983 16.4203L40.0864 17.1313C43.6403 15.1909 47.2904 13.3951 50.9678 11.7642L50.6394 11.0237ZM29.2683 22.7355C25.8111 25.0585 22.533 27.5192 19.5132 30.0949L20.0389 30.7112C23.0326 28.1577 26.2855 25.7155 29.72 23.4078L29.2683 22.7355ZM10.8304 38.6988C8.05029 41.9651 5.73429 45.3595 4.01247 48.846L4.73873 49.2047C6.42578 45.7886 8.70182 42.4493 11.4472 39.2238L10.8304 38.6988ZM0.664657 60.5874C0.377046 64.5701 0.971229 68.606 2.60892 72.6428L3.3595 72.3383C1.76853 68.4166 1.19386 64.5049 1.47255 60.6457L0.664657 60.5874ZM9.13499 82.8948C11.5576 85.6444 14.5355 88.372 18.1194 91.0632L18.6058 90.4154C15.0593 87.7524 12.1236 85.0615 9.74274 82.3593L9.13499 82.8948ZM28.3249 97.6805C31.6119 99.5431 35.2275 101.382 39.1903 103.191L39.5267 102.454C35.583 100.654 31.9887 98.8256 28.7242 96.9758L28.3249 97.6805ZM50.5728 107.935C54.1402 109.296 57.9274 110.637 61.9432 111.955L62.1958 111.186C58.1912 109.871 54.4161 108.535 50.8616 107.178L50.5728 107.935ZM73.4717 115.492C77.3008 116.591 81.3061 117.671 85.4934 118.731L85.6921 117.946C81.5126 116.888 77.5156 115.81 73.6952 114.713L73.4717 115.492ZM96.9974 121.486C100.927 122.376 104.999 123.25 109.216 124.106L109.377 123.312C105.166 122.457 101.1 121.585 97.1764 120.696L96.9974 121.486ZM120.814 126.347C124.749 127.071 128.8 127.78 132.968 128.475L133.101 127.676C128.937 126.982 124.891 126.274 120.96 125.551L120.814 126.347ZM144.872 130.367C148.759 130.956 152.74 131.533 156.817 132.097L156.928 131.295C152.854 130.731 148.877 130.155 144.993 129.566L144.872 130.367ZM169.254 133.739C173.063 134.219 176.949 134.688 180.914 135.146L181.007 134.341C177.045 133.884 173.161 133.415 169.355 132.936L169.254 133.739ZM193.049 136.486C197.099 136.914 201.228 137.33 205.435 137.735L205.512 136.929C201.308 136.524 197.182 136.108 193.134 135.68L193.049 136.486ZM217.171 138.818C221.15 139.169 225.195 139.51 229.308 139.841L229.373 139.034C225.262 138.703 221.219 138.362 217.243 138.011L217.171 138.818ZM241.85 140.804C245.703 141.086 249.612 141.36 253.578 141.624L253.632 140.816C249.668 140.552 245.76 140.278 241.909 139.997L241.85 140.804ZM265.599 142.389C269.663 142.635 273.784 142.873 277.963 143.101L278.007 142.292C273.829 142.064 269.71 141.827 265.648 141.581L265.599 142.389ZM290.194 143.735C294.09 143.926 298.034 144.11 302.027 144.286L302.062 143.477C298.071 143.301 294.128 143.117 290.234 142.926L290.194 143.735ZM314.152 144.791C318.242 144.951 322.382 145.104 326.572 145.248L326.6 144.439C322.412 144.294 318.273 144.142 314.183 143.981L314.152 144.791ZM338.743 145.641C342.652 145.759 346.603 145.869 350.596 145.973L350.618 145.164C346.625 145.06 342.676 144.949 338.767 144.831L338.743 145.641ZM362.703 146.264C366.781 146.354 370.902 146.437 375.065 146.513L375.08 145.703C370.918 145.627 366.798 145.545 362.721 145.455L362.703 146.264ZM387.483 146.716C391.375 146.773 395.303 146.823 399.268 146.867L399.277 146.057C395.313 146.013 391.386 145.963 387.495 145.906L387.483 146.716ZM411.274 146.981C415.313 147.013 419.389 147.039 423.502 147.058L423.505 146.248C419.393 146.229 415.318 146.203 411.281 146.171L411.274 146.981ZM435.953 147.097C436.839 147.098 437.727 147.099 438.617 147.1L438.618 146.29C437.728 146.289 436.84 146.288 435.954 146.287L435.953 147.097ZM91.7626 1.81C92.21 1.81 92.5726 1.44735 92.5726 1C92.5726 0.552649 92.21 0.19 91.7626 0.19V1.81ZM442.263 146.696L434.166 142.014L434.159 151.367L442.263 146.696ZM85.6513 0.525501C85.2064 0.571663 84.8831 0.969798 84.9293 1.41476C84.9754 1.85972 85.3736 2.18302 85.8185 2.13685L85.6513 0.525501ZM73.9981 4.24093C74.4328 4.1353 74.6996 3.69727 74.5939 3.26257C74.4883 2.82787 74.0503 2.56111 73.6156 2.66674L73.9981 4.24093ZM61.8451 6.158C61.4226 6.30493 61.1992 6.76657 61.3461 7.1891C61.493 7.61164 61.9547 7.83506 62.3772 7.68814L61.8451 6.158ZM51.1319 12.1344C51.5409 11.953 51.7254 11.4745 51.544 11.0655C51.3626 10.6566 50.8841 10.4721 50.4752 10.6535L51.1319 12.1344ZM39.5042 16.0649C39.1115 16.2792 38.967 16.7713 39.1814 17.164C39.3958 17.5566 39.8879 17.7011 40.2805 17.4867L39.5042 16.0649ZM29.9459 23.744C30.3172 23.4945 30.416 22.9913 30.1665 22.6199C29.917 22.2486 29.4137 22.1499 29.0424 22.3994L29.9459 23.744ZM19.2504 29.7868C18.91 30.0771 18.8695 30.5883 19.1598 30.9287C19.4501 31.2691 19.9613 31.3096 20.3017 31.0193L19.2504 29.7868ZM11.7556 39.4863C12.0456 39.1457 12.0045 38.6345 11.6638 38.3445C11.3232 38.0546 10.812 38.0957 10.522 38.4363L11.7556 39.4863ZM3.64934 48.6667C3.45125 49.0678 3.61583 49.5536 4.01694 49.7516C4.41804 49.9497 4.90378 49.7851 5.10187 49.384L3.64934 48.6667ZM1.8765 60.6749C1.90872 60.2287 1.57314 59.8409 1.12695 59.8087C0.68076 59.7765 0.292931 60.112 0.260709 60.5582L1.8765 60.6749ZM2.23363 72.795C2.4018 73.2096 2.87418 73.4093 3.28871 73.2411C3.70325 73.0729 3.90297 72.6006 3.73479 72.186L2.23363 72.795ZM10.0466 82.0916C9.75088 81.7559 9.23904 81.7235 8.90339 82.0193C8.56773 82.315 8.53537 82.8269 8.83111 83.1625L10.0466 82.0916ZM17.8762 91.387C18.2339 91.6556 18.7417 91.5834 19.0103 91.2257C19.2789 90.868 19.2067 90.3602 18.8489 90.0916L17.8762 91.387ZM28.9239 96.6235C28.5347 96.4029 28.0404 96.5396 27.8198 96.9289C27.5993 97.3181 27.736 97.8124 28.1252 98.0329L28.9239 96.6235ZM39.0221 103.56C39.429 103.745 39.9095 103.566 40.0953 103.159C40.2811 102.752 40.1019 102.272 39.6949 102.086L39.0221 103.56ZM51.006 106.8C50.5881 106.64 50.1199 106.85 49.9604 107.268C49.8009 107.686 50.0104 108.154 50.4284 108.313L51.006 106.8ZM61.8169 112.34C62.242 112.48 62.6996 112.248 62.8391 111.823C62.9786 111.398 62.7471 110.94 62.3221 110.801L61.8169 112.34ZM73.8069 114.324C73.3769 114.201 72.9283 114.449 72.8049 114.879C72.6815 115.309 72.93 115.758 73.36 115.881L73.8069 114.324ZM85.394 119.124C85.8277 119.234 86.2682 118.971 86.378 118.537C86.4877 118.104 86.2252 117.663 85.7915 117.553L85.394 119.124ZM97.2659 120.301C96.8296 120.202 96.3957 120.475 96.2969 120.912C96.198 121.348 96.4716 121.782 96.9079 121.881L97.2659 120.301ZM109.136 124.503C109.574 124.592 110.002 124.309 110.091 123.87C110.18 123.432 109.896 123.005 109.458 122.916L109.136 124.503ZM121.033 125.152C120.593 125.071 120.171 125.362 120.09 125.802C120.009 126.242 120.3 126.665 120.74 126.746L121.033 125.152ZM132.901 128.874C133.343 128.948 133.76 128.649 133.833 128.208C133.907 127.767 133.609 127.35 133.168 127.276L132.901 128.874ZM145.054 129.165C144.612 129.098 144.199 129.403 144.132 129.845C144.065 130.287 144.369 130.7 144.811 130.767L145.054 129.165ZM156.761 132.498C157.204 132.56 157.613 132.25 157.675 131.807C157.736 131.364 157.426 130.955 156.983 130.894L156.761 132.498ZM169.406 132.534C168.962 132.478 168.557 132.792 168.501 133.236C168.445 133.68 168.76 134.085 169.203 134.141L169.406 132.534ZM180.868 135.548C181.312 135.6 181.714 135.281 181.765 134.836C181.817 134.392 181.498 133.99 181.054 133.939L180.868 135.548ZM193.176 135.278C192.731 135.231 192.333 135.553 192.286 135.998C192.239 136.443 192.561 136.842 193.006 136.889L193.176 135.278ZM205.396 138.138C205.841 138.181 206.237 137.855 206.28 137.41C206.323 136.965 205.997 136.569 205.551 136.526L205.396 138.138ZM217.278 137.607C216.833 137.568 216.439 137.897 216.4 138.343C216.361 138.789 216.69 139.182 217.136 139.221L217.278 137.607ZM229.275 140.245C229.721 140.281 230.112 139.948 230.148 139.503C230.184 139.057 229.851 138.666 229.406 138.63L229.275 140.245ZM241.938 139.593C241.492 139.56 241.104 139.895 241.072 140.341C241.039 140.788 241.374 141.176 241.82 141.208L241.938 139.593ZM253.551 142.028C253.998 142.058 254.384 141.721 254.413 141.274C254.443 140.828 254.105 140.442 253.659 140.412L253.551 142.028ZM265.672 141.176C265.226 141.149 264.842 141.489 264.815 141.936C264.788 142.382 265.128 142.766 265.574 142.793L265.672 141.176ZM277.94 143.505C278.387 143.53 278.769 143.187 278.793 142.741C278.818 142.294 278.475 141.912 278.029 141.888L277.94 143.505ZM290.254 142.521C289.807 142.5 289.427 142.844 289.405 143.291C289.383 143.738 289.727 144.118 290.174 144.14L290.254 142.521ZM302.009 144.691C302.456 144.71 302.834 144.364 302.854 143.917C302.873 143.47 302.527 143.092 302.08 143.072L302.009 144.691ZM314.199 143.577C313.752 143.559 313.376 143.907 313.358 144.354C313.341 144.801 313.689 145.178 314.136 145.196L314.199 143.577ZM326.558 145.653C327.005 145.668 327.38 145.318 327.396 144.871C327.411 144.424 327.061 144.049 326.614 144.034L326.558 145.653ZM338.78 144.427C338.332 144.413 337.959 144.765 337.946 145.212C337.932 145.659 338.284 146.032 338.731 146.046L338.78 144.427ZM350.586 146.378C351.033 146.39 351.405 146.037 351.417 145.59C351.428 145.142 351.075 144.77 350.628 144.759L350.586 146.378ZM362.73 145.05C362.283 145.04 361.912 145.394 361.902 145.842C361.892 146.289 362.247 146.659 362.694 146.669L362.73 145.05ZM375.058 146.918C375.505 146.926 375.874 146.57 375.883 146.123C375.891 145.676 375.535 145.306 375.087 145.298L375.058 146.918ZM387.5 145.501C387.053 145.495 386.685 145.852 386.679 146.299C386.672 146.747 387.03 147.115 387.477 147.121L387.5 145.501ZM399.264 147.272C399.711 147.277 400.078 146.919 400.083 146.471C400.088 146.024 399.729 145.657 399.282 145.652L399.264 147.272ZM411.284 145.766C410.836 145.763 410.471 146.123 410.467 146.57C410.464 147.017 410.824 147.383 411.271 147.386L411.284 145.766ZM423.5 147.463C423.947 147.465 424.311 147.104 424.314 146.657C424.316 146.209 423.955 145.845 423.507 145.843L423.5 147.463ZM435.955 145.882C435.507 145.881 435.144 146.243 435.143 146.69C435.143 147.138 435.505 147.501 435.952 147.502L435.955 145.882ZM91.7626 0.19C89.8279 0.19 87.7834 0.304312 85.6513 0.525501L85.8185 2.13685C87.9026 1.92064 89.8908 1.81 91.7626 1.81V0.19ZM73.6156 2.66674C69.7991 3.59416 65.8463 4.76668 61.8451 6.158L62.3772 7.68814C66.3331 6.31256 70.2359 5.15515 73.9981 4.24093L73.6156 2.66674ZM50.4752 10.6535C46.7682 12.2975 43.0882 14.108 39.5042 16.0649L40.2805 17.4867C43.8243 15.5518 47.4644 13.7609 51.1319 12.1344L50.4752 10.6535ZM29.0424 22.3994C25.5738 24.7299 22.2832 27.1999 19.2504 29.7868L20.3017 31.0193C23.2823 28.477 26.5228 26.044 29.9459 23.744L29.0424 22.3994ZM10.522 38.4363C7.72452 41.723 5.38854 45.145 3.64934 48.6667L5.10187 49.384C6.77152 46.0032 9.02759 42.6914 11.7556 39.4863L10.522 38.4363ZM0.260709 60.5582C-0.0313623 64.6027 0.572577 68.7007 2.23363 72.795L3.73479 72.186C2.16719 68.322 1.60227 64.4723 1.8765 60.6749L0.260709 60.5582ZM8.83111 83.1625C11.2746 85.9358 14.2737 88.6819 17.8762 91.387L18.8489 90.0916C15.3212 87.4426 12.4066 84.7701 10.0466 82.0916L8.83111 83.1625ZM28.1252 98.0329C31.4235 99.9018 35.0497 101.746 39.0221 103.56L39.6949 102.086C35.7608 100.29 32.177 98.4668 28.9239 96.6235L28.1252 98.0329ZM50.4284 108.313C54.0022 109.677 57.7954 111.02 61.8169 112.34L62.3221 110.801C58.3231 109.488 54.5541 108.154 51.006 106.8L50.4284 108.313ZM73.36 115.881C77.1933 116.982 81.2028 118.063 85.394 119.124L85.7915 117.553C81.6159 116.496 77.623 115.419 73.8069 114.324L73.36 115.881ZM96.9079 121.881C100.841 122.772 104.916 123.646 109.136 124.503L109.458 122.916C105.249 122.061 101.186 121.189 97.2659 120.301L96.9079 121.881ZM120.74 126.746C124.678 127.47 128.731 128.18 132.901 128.874L133.168 127.276C129.006 126.583 124.962 125.875 121.033 125.152L120.74 126.746ZM144.811 130.767C148.7 131.357 152.683 131.934 156.761 132.498L156.983 130.894C152.911 130.33 148.936 129.754 145.054 129.165L144.811 130.767ZM169.203 134.141C173.013 134.621 176.901 135.09 180.868 135.548L181.054 133.939C177.092 133.481 173.21 133.013 169.406 132.534L169.203 134.141ZM193.006 136.889C197.058 137.317 201.188 137.733 205.396 138.138L205.551 136.526C201.348 136.121 197.223 135.705 193.176 135.278L193.006 136.889ZM217.136 139.221C221.115 139.572 225.162 139.914 229.275 140.245L229.406 138.63C225.296 138.299 221.254 137.958 217.278 137.607L217.136 139.221ZM241.82 141.208C245.674 141.49 249.584 141.764 253.551 142.028L253.659 140.412C249.695 140.148 245.789 139.874 241.938 139.593L241.82 141.208ZM265.574 142.793C269.639 143.04 273.761 143.277 277.94 143.505L278.029 141.888C273.852 141.659 269.734 141.422 265.672 141.176L265.574 142.793ZM290.174 144.14C294.071 144.331 298.015 144.515 302.009 144.691L302.08 143.072C298.089 142.896 294.147 142.713 290.254 142.521L290.174 144.14ZM314.136 145.196C318.227 145.356 322.368 145.509 326.558 145.653L326.614 144.034C322.426 143.89 318.288 143.737 314.199 143.577L314.136 145.196ZM338.731 146.046C342.641 146.163 346.592 146.274 350.586 146.378L350.628 144.759C346.637 144.655 342.687 144.544 338.78 144.427L338.731 146.046ZM362.694 146.669C366.773 146.759 370.894 146.842 375.058 146.918L375.087 145.298C370.925 145.223 366.806 145.14 362.73 145.05L362.694 146.669ZM387.477 147.121C391.369 147.178 395.298 147.228 399.264 147.272L399.282 145.652C395.318 145.608 391.391 145.558 387.5 145.501L387.477 147.121ZM411.271 147.386C415.31 147.418 419.386 147.444 423.5 147.463L423.507 145.843C419.396 145.824 415.321 145.798 411.284 145.766L411.271 147.386Z" fill="#C9D1D9"/>
</svg>
