

<svg width="471" height="178" viewBox="0 0 471 178" fill="none" xmlns="http://www.w3.org/2000/svg">
<path d="M381.799 0.596599C381.576 0.576741 381.379 0.74125 381.359 0.964042C381.34 1.18683 381.504 1.38354 381.727 1.4034L381.799 0.596599ZM0.262695 168L4.02645 170.776L4.54834 166.128L0.262695 168ZM6.36741 169.088C6.58976 169.113 6.78976 168.952 6.81412 168.73C6.83849 168.508 6.678 168.308 6.45565 168.283L6.36741 169.088ZM18.6186 169.569C18.396 169.547 18.1973 169.709 18.1746 169.931C18.1519 170.154 18.314 170.352 18.5365 170.375L18.6186 169.569ZM30.5305 171.55C30.7532 171.571 30.9507 171.407 30.9716 171.185C30.9926 170.962 30.829 170.764 30.6063 170.743L30.5305 171.55ZM42.4194 171.808C42.1965 171.788 42.0003 171.954 41.9811 172.176C41.9619 172.399 42.127 172.596 42.3499 172.615L42.4194 171.808ZM54.5685 173.616C54.7915 173.633 54.9864 173.466 55.0037 173.243C55.021 173.02 54.8543 172.825 54.6313 172.808L54.5685 173.616ZM66.7514 173.698C66.5283 173.682 66.3349 173.851 66.3195 174.074C66.304 174.297 66.4724 174.491 66.6956 174.506L66.7514 173.698ZM78.6289 175.279C78.8522 175.292 79.0441 175.122 79.0576 174.899C79.0711 174.676 78.901 174.484 78.6777 174.47L78.6289 175.279ZM90.6917 175.142C90.4684 175.13 90.278 175.302 90.2665 175.525C90.255 175.749 90.4268 175.939 90.6502 175.951L90.6917 175.142ZM102.882 176.521C103.105 176.53 103.294 176.357 103.303 176.133C103.313 175.91 103.139 175.721 102.915 175.711L102.882 176.521ZM114.924 176.156C114.7 176.149 114.513 176.324 114.506 176.548C114.499 176.772 114.674 176.959 114.897 176.966L114.924 176.156ZM126.806 177.291C127.03 177.296 127.215 177.118 127.22 176.895C127.225 176.671 127.048 176.486 126.824 176.481L126.806 177.291ZM139.113 176.69C138.889 176.687 138.706 176.867 138.703 177.09C138.7 177.314 138.88 177.497 139.103 177.5L139.113 176.69ZM151.16 177.577C151.384 177.577 151.565 177.396 151.565 177.172C151.566 176.948 151.384 176.767 151.161 176.767L151.16 177.577ZM163.033 176.713C162.809 176.715 162.63 176.898 162.632 177.122C162.634 177.346 162.817 177.525 163.041 177.523L163.033 176.713ZM175.352 177.326C175.576 177.321 175.753 177.136 175.748 176.912C175.743 176.688 175.558 176.511 175.335 176.516L175.352 177.326ZM187.367 176.179C187.143 176.187 186.968 176.374 186.976 176.597C186.984 176.821 187.171 176.996 187.394 176.988L187.367 176.179ZM199.328 176.507C199.552 176.496 199.724 176.306 199.714 176.083C199.704 175.86 199.514 175.687 199.291 175.697L199.328 176.507ZM211.537 175.043C211.314 175.056 211.144 175.248 211.157 175.472C211.171 175.695 211.363 175.865 211.586 175.852L211.537 175.043ZM223.541 175.049C223.764 175.032 223.931 174.838 223.915 174.615C223.898 174.392 223.704 174.225 223.481 174.241L223.541 175.049ZM235.525 173.26C235.302 173.28 235.138 173.477 235.157 173.7C235.177 173.922 235.374 174.087 235.597 174.067L235.525 173.26ZM247.71 172.897C247.932 172.874 248.094 172.675 248.071 172.452C248.047 172.23 247.848 172.068 247.626 172.091L247.71 172.897ZM259.385 170.769C259.163 170.796 259.005 170.997 259.032 171.219C259.059 171.441 259.26 171.6 259.482 171.573L259.385 170.769ZM271.706 169.991C271.927 169.961 272.082 169.756 272.052 169.534C272.021 169.313 271.816 169.158 271.595 169.189L271.706 169.991ZM283.431 167.443C283.21 167.478 283.059 167.685 283.093 167.906C283.128 168.127 283.335 168.278 283.556 168.243L283.431 167.443ZM295.545 166.244C295.766 166.205 295.913 165.995 295.874 165.775C295.835 165.555 295.625 165.408 295.404 165.447L295.545 166.244ZM307.259 163.225C307.039 163.269 306.897 163.482 306.94 163.701C306.984 163.921 307.197 164.063 307.416 164.02L307.259 163.225ZM319.222 161.545C319.441 161.497 319.578 161.28 319.53 161.062C319.482 160.844 319.266 160.706 319.047 160.754L319.222 161.545ZM330.839 157.997C330.622 158.051 330.489 158.27 330.543 158.488C330.596 158.705 330.816 158.837 331.033 158.784L330.839 157.997ZM342.693 155.75C342.909 155.691 343.036 155.469 342.977 155.253C342.918 155.037 342.695 154.91 342.479 154.969L342.693 155.75ZM354.096 151.61C353.882 151.675 353.761 151.902 353.827 152.116C353.892 152.33 354.118 152.45 354.332 152.385L354.096 151.61ZM365.855 148.681C366.067 148.609 366.18 148.38 366.108 148.168C366.037 147.956 365.807 147.842 365.595 147.914L365.855 148.681ZM376.879 143.88C376.67 143.959 376.564 144.192 376.643 144.401C376.722 144.611 376.956 144.716 377.165 144.638L376.879 143.88ZM388.506 140.115C388.712 140.028 388.809 139.791 388.722 139.585C388.635 139.379 388.397 139.282 388.191 139.369L388.506 140.115ZM399.098 134.501C398.895 134.596 398.809 134.838 398.904 135.04C399 135.242 399.241 135.329 399.444 135.233L399.098 134.501ZM410.29 129.785C410.487 129.679 410.562 129.434 410.457 129.237C410.351 129.039 410.106 128.965 409.909 129.07L410.29 129.785ZM420.44 123.062C420.249 123.179 420.189 123.428 420.305 123.619C420.422 123.81 420.671 123.87 420.862 123.754L420.44 123.062ZM430.963 117.133C431.146 117.004 431.189 116.751 431.06 116.569C430.931 116.386 430.679 116.342 430.496 116.471L430.963 117.133ZM440.012 109.185C439.84 109.328 439.817 109.583 439.96 109.755C440.103 109.927 440.359 109.95 440.531 109.807L440.012 109.185ZM449.426 101.636C449.582 101.477 449.58 101.22 449.42 101.064C449.261 100.907 449.004 100.909 448.848 101.069L449.426 101.636ZM456.739 91.9863C456.603 92.1645 456.638 92.4186 456.816 92.5537C456.995 92.6889 457.249 92.6541 457.384 92.4759L456.739 91.9863ZM463.95 82.223C464.054 82.0249 463.977 81.7802 463.779 81.6764C463.581 81.5725 463.336 81.649 463.232 81.8471L463.95 82.223ZM467.658 70.7113C467.6 70.9272 467.727 71.1496 467.943 71.208C468.159 71.2664 468.381 71.1387 468.44 70.9228L467.658 70.7113ZM470.03 58.9142C470.028 58.6906 469.845 58.5109 469.622 58.5129C469.398 58.515 469.218 58.698 469.22 58.9216L470.03 58.9142ZM467.32 47.1797C467.388 47.3925 467.617 47.5093 467.83 47.4405C468.042 47.3717 468.159 47.1434 468.09 46.9306L467.32 47.1797ZM462.732 36.0346C462.607 35.8493 462.355 35.8005 462.17 35.9257C461.984 36.0509 461.935 36.3027 462.061 36.488L462.732 36.0346ZM454.19 27.3931C454.354 27.5452 454.61 27.5356 454.762 27.3716C454.914 27.2076 454.905 26.9514 454.741 26.7993L454.19 27.3931ZM445.174 19.4159C444.986 19.2943 444.735 19.3481 444.614 19.5359C444.492 19.7236 444.546 19.9744 444.734 20.0959L445.174 19.4159ZM434.23 14.296C434.433 14.3913 434.674 14.3046 434.769 14.1023C434.865 13.8999 434.778 13.6586 434.576 13.5633L434.23 14.296ZM423.334 9.0022C423.123 8.92877 422.892 9.04053 422.819 9.25181C422.745 9.46309 422.857 9.69389 423.069 9.76731L423.334 9.0022ZM411.474 6.30762C411.691 6.36259 411.911 6.23139 411.966 6.01458C412.021 5.79776 411.89 5.57744 411.673 5.52246L411.474 6.30762ZM399.872 2.98569C399.652 2.94627 399.442 3.09279 399.402 3.31296C399.363 3.53314 399.51 3.74358 399.73 3.78301L399.872 2.98569ZM387.887 2.03835C388.109 2.06443 388.31 1.90548 388.336 1.68333C388.363 1.46118 388.204 1.25995 387.981 1.23388L387.887 2.03835ZM3.84021 168.809C4.68386 168.903 5.52625 168.996 6.36741 169.088L6.45565 168.283C5.61491 168.191 4.77293 168.098 3.92971 168.004L3.84021 168.809ZM18.5365 170.375C22.5636 170.785 26.5616 171.177 30.5305 171.55L30.6063 170.743C26.6395 170.371 22.6436 169.979 18.6186 169.569L18.5365 170.375ZM42.3499 172.615C46.4547 172.968 50.5275 173.302 54.5685 173.616L54.6313 172.808C50.5926 172.494 46.522 172.161 42.4194 171.808L42.3499 172.615ZM66.6956 174.506C70.7056 174.783 74.6834 175.041 78.6289 175.279L78.6777 174.47C74.7345 174.232 70.7591 173.975 66.7514 173.698L66.6956 174.506ZM90.6502 175.951C94.7634 176.162 98.8404 176.352 102.882 176.521L102.915 175.711C98.8769 175.542 94.8023 175.353 90.6917 175.142L90.6502 175.951ZM114.897 176.966C118.903 177.095 122.873 177.203 126.806 177.291L126.824 176.481C122.894 176.393 118.927 176.285 114.924 176.156L114.897 176.966ZM139.103 177.5C143.162 177.548 147.181 177.573 151.16 177.577L151.161 176.767C147.185 176.763 143.169 176.738 139.113 176.69L139.103 177.5ZM163.041 177.523C167.19 177.481 171.293 177.415 175.352 177.326L175.335 176.516C171.279 176.605 167.178 176.671 163.033 176.713L163.041 177.523ZM187.394 176.988C191.418 176.851 195.396 176.69 199.328 176.507L199.291 175.697C195.362 175.881 191.387 176.042 187.367 176.179L187.394 176.988ZM211.586 175.852C215.621 175.608 219.606 175.341 223.541 175.049L223.481 174.241C219.55 174.533 215.569 174.8 211.537 175.043L211.586 175.852ZM235.597 174.067C239.691 173.703 243.729 173.313 247.71 172.897L247.626 172.091C243.649 172.507 239.616 172.897 235.525 173.26L235.597 174.067ZM259.482 171.573C263.622 171.074 267.696 170.546 271.706 169.991L271.595 169.189C267.59 169.743 263.52 170.27 259.385 170.769L259.482 171.573ZM283.556 168.243C287.623 167.605 291.619 166.939 295.545 166.244L295.404 165.447C291.483 166.14 287.492 166.806 283.431 167.443L283.556 168.243ZM307.416 164.02C311.43 163.224 315.365 162.399 319.222 161.545L319.047 160.754C315.196 161.607 311.267 162.431 307.259 163.225L307.416 164.02ZM331.033 158.784C335.009 157.803 338.896 156.792 342.693 155.75L342.479 154.969C338.688 156.008 334.809 157.018 330.839 157.997L331.033 158.784ZM354.332 152.385C358.278 151.183 362.119 149.947 365.855 148.681L365.595 147.914C361.867 149.177 358.034 150.41 354.096 151.61L354.332 152.385ZM377.165 144.638C381.074 143.164 384.854 141.655 388.506 140.115L388.191 139.369C384.549 140.905 380.778 142.409 376.879 143.88L377.165 144.638ZM399.444 135.233C403.216 133.45 406.831 131.633 410.29 129.785L409.909 129.07C406.461 130.912 402.858 132.723 399.098 134.501L399.444 135.233ZM420.862 123.754C424.428 121.579 427.795 119.369 430.963 117.133L430.496 116.471C427.343 118.697 423.992 120.896 420.44 123.062L420.862 123.754ZM440.531 109.807C443.767 107.108 446.731 104.381 449.426 101.636L448.848 101.069C446.173 103.793 443.229 106.502 440.012 109.185L440.531 109.807ZM457.384 92.4759C459.974 89.0613 462.161 85.637 463.95 82.223L463.232 81.8471C461.466 85.218 459.304 88.6045 456.739 91.9863L457.384 92.4759ZM468.44 70.9228C469.539 66.8599 470.066 62.8449 470.03 58.9142L469.22 58.9216C469.256 62.7743 468.739 66.7156 467.658 70.7113L468.44 70.9228ZM468.09 46.9306C466.87 43.1546 465.079 39.5101 462.732 36.0346L462.061 36.488C464.368 39.9037 466.124 43.4799 467.32 47.1797L468.09 46.9306ZM454.741 26.7993C451.928 24.1892 448.736 21.7211 445.174 19.4159L444.734 20.0959C448.26 22.3778 451.414 24.8175 454.19 27.3931L454.741 26.7993ZM434.576 13.5633C431.077 11.9146 427.328 10.3902 423.334 9.0022L423.069 9.76731C427.037 11.1466 430.759 12.6603 434.23 14.296L434.576 13.5633ZM411.673 5.52246C407.912 4.5689 403.978 3.72087 399.872 2.98569L399.73 3.78301C403.817 4.51497 407.733 5.35901 411.474 6.30762L411.673 5.52246ZM387.981 1.23388C385.956 0.996112 383.895 0.78345 381.799 0.596599L381.727 1.4034C383.816 1.58959 385.869 1.80148 387.887 2.03835L387.981 1.23388ZM381.835 0.193199C381.389 0.153481 380.996 0.482501 380.956 0.928085C380.916 1.37367 381.245 1.76708 381.691 1.8068L381.835 0.193199ZM0.262695 168L7.79453 173.545L8.83107 164.25L0.262695 168ZM6.32329 169.491C6.76798 169.54 7.16798 169.219 7.21671 168.774C7.26544 168.329 6.94446 167.929 6.49977 167.881L6.32329 169.491ZM18.6596 169.166C18.2146 169.121 17.817 169.445 17.7717 169.89C17.7264 170.335 18.0504 170.733 18.4955 170.778L18.6596 169.166ZM30.4926 171.953C30.938 171.995 31.333 171.668 31.3748 171.223C31.4167 170.777 31.0896 170.382 30.6442 170.34L30.4926 171.953ZM42.4541 171.404C42.0084 171.366 41.616 171.696 41.5776 172.142C41.5392 172.587 41.8694 172.98 42.3152 173.018L42.4541 171.404ZM54.5372 174.019C54.9832 174.054 55.3728 173.721 55.4075 173.275C55.4421 172.829 55.1087 172.439 54.6627 172.404L54.5372 174.019ZM66.7793 173.294C66.333 173.263 65.9463 173.6 65.9154 174.046C65.8846 174.492 66.2214 174.879 66.6677 174.91L66.7793 173.294ZM78.6045 175.683C79.051 175.71 79.4349 175.37 79.4619 174.923C79.4888 174.477 79.1487 174.093 78.7022 174.066L78.6045 175.683ZM90.7125 174.737C90.2657 174.714 89.885 175.058 89.862 175.505C89.8391 175.951 90.1827 176.332 90.6294 176.355L90.7125 174.737ZM102.865 176.925C103.312 176.944 103.689 176.597 103.708 176.15C103.727 175.703 103.379 175.326 102.932 175.307L102.865 176.925ZM114.937 175.751C114.489 175.737 114.115 176.088 114.101 176.535C114.087 176.982 114.437 177.356 114.884 177.371L114.937 175.751ZM126.797 177.695C127.244 177.705 127.615 177.351 127.625 176.904C127.635 176.456 127.281 176.086 126.833 176.076L126.797 177.695ZM139.118 176.285C138.67 176.28 138.303 176.638 138.298 177.086C138.293 177.533 138.651 177.9 139.099 177.905L139.118 176.285ZM151.16 177.982C151.607 177.982 151.97 177.62 151.97 177.172C151.971 176.725 151.608 176.362 151.161 176.362L151.16 177.982ZM163.029 176.308C162.581 176.312 162.222 176.679 162.227 177.126C162.231 177.573 162.598 177.932 163.045 177.928L163.029 176.308ZM175.361 177.731C175.809 177.721 176.163 177.35 176.153 176.903C176.143 176.456 175.773 176.101 175.326 176.111L175.361 177.731ZM187.353 175.774C186.906 175.789 186.556 176.164 186.571 176.611C186.586 177.058 186.961 177.408 187.408 177.393L187.353 175.774ZM199.347 176.911C199.794 176.89 200.139 176.511 200.119 176.064C200.098 175.617 199.719 175.272 199.272 175.293L199.347 176.911ZM211.513 174.639C211.066 174.666 210.726 175.049 210.753 175.496C210.78 175.943 211.164 176.283 211.61 176.256L211.513 174.639ZM223.571 175.453C224.017 175.42 224.352 175.031 224.319 174.585C224.286 174.139 223.897 173.804 223.451 173.837L223.571 175.453ZM235.489 172.857C235.043 172.897 234.714 173.29 234.754 173.736C234.794 174.181 235.187 174.51 235.632 174.471L235.489 172.857ZM247.752 173.3C248.197 173.253 248.52 172.855 248.473 172.41C248.427 171.965 248.029 171.642 247.584 171.689L247.752 173.3ZM259.337 170.367C258.893 170.42 258.576 170.824 258.63 171.268C258.683 171.712 259.087 172.029 259.531 171.975L259.337 170.367ZM271.761 170.392C272.205 170.331 272.514 169.922 272.453 169.479C272.391 169.036 271.982 168.726 271.539 168.788L271.761 170.392ZM283.368 167.043C282.926 167.112 282.624 167.527 282.693 167.969C282.763 168.41 283.177 168.713 283.619 168.643L283.368 167.043ZM295.616 166.643C296.056 166.565 296.35 166.145 296.272 165.705C296.195 165.264 295.774 164.97 295.334 165.048L295.616 166.643ZM307.18 162.828C306.741 162.915 306.456 163.341 306.543 163.78C306.63 164.219 307.056 164.504 307.495 164.417L307.18 162.828ZM319.31 161.94C319.746 161.844 320.022 161.411 319.926 160.975C319.829 160.538 319.396 160.262 318.96 160.359L319.31 161.94ZM330.742 157.604C330.308 157.711 330.043 158.15 330.15 158.585C330.257 159.019 330.696 159.284 331.13 159.177L330.742 157.604ZM342.8 156.141C343.232 156.023 343.486 155.577 343.367 155.146C343.249 154.714 342.803 154.46 342.372 154.579L342.8 156.141ZM353.978 151.223C353.55 151.353 353.309 151.806 353.439 152.234C353.57 152.662 354.022 152.903 354.45 152.773L353.978 151.223ZM365.985 149.065C366.408 148.921 366.635 148.461 366.492 148.038C366.348 147.614 365.888 147.387 365.465 147.531L365.985 149.065ZM376.736 143.501C376.318 143.659 376.106 144.126 376.264 144.544C376.422 144.963 376.889 145.174 377.308 145.016L376.736 143.501ZM388.663 140.488C389.076 140.315 389.269 139.839 389.095 139.427C388.921 139.015 388.446 138.822 388.034 138.996L388.663 140.488ZM398.925 134.134C398.52 134.326 398.347 134.808 398.538 135.213C398.729 135.617 399.212 135.79 399.617 135.599L398.925 134.134ZM410.481 130.142C410.876 129.931 411.025 129.44 410.814 129.046C410.603 128.651 410.112 128.502 409.718 128.713L410.481 130.142ZM420.229 122.717C419.847 122.95 419.726 123.448 419.959 123.83C420.192 124.212 420.691 124.333 421.073 124.1L420.229 122.717ZM431.197 117.464C431.562 117.206 431.649 116.701 431.391 116.335C431.133 115.97 430.628 115.882 430.262 116.14L431.197 117.464ZM439.752 108.874C439.409 109.16 439.363 109.671 439.649 110.015C439.936 110.358 440.446 110.404 440.79 110.118L439.752 108.874ZM449.715 101.92C450.028 101.601 450.023 101.088 449.704 100.775C449.385 100.461 448.872 100.466 448.559 100.785L449.715 101.92ZM456.416 91.7415C456.146 92.0979 456.215 92.606 456.572 92.8764C456.928 93.1468 457.436 93.0771 457.707 92.7207L456.416 91.7415ZM464.309 82.411C464.516 82.0147 464.363 81.5252 463.967 81.3176C463.571 81.11 463.081 81.2629 462.874 81.6592L464.309 82.411ZM467.267 70.6055C467.15 71.0373 467.406 71.4821 467.837 71.5989C468.269 71.7157 468.714 71.4604 468.831 71.0286L467.267 70.6055ZM470.435 58.9105C470.431 58.4632 470.065 58.1039 469.618 58.108C469.171 58.112 468.811 58.478 468.815 58.9253L470.435 58.9105ZM466.934 47.3043C467.072 47.7299 467.529 47.9635 467.954 47.8259C468.38 47.6883 468.613 47.2317 468.476 46.8061L466.934 47.3043ZM463.068 35.808C462.817 35.4372 462.314 35.3397 461.943 35.5901C461.572 35.8405 461.475 36.344 461.725 36.7147L463.068 35.808ZM453.915 27.6899C454.242 27.9942 454.755 27.975 455.059 27.6471C455.364 27.3191 455.344 26.8066 455.016 26.5024L453.915 27.6899ZM445.394 19.0758C445.018 18.8328 444.517 18.9403 444.274 19.3158C444.031 19.6914 444.138 20.1929 444.514 20.4359L445.394 19.0758ZM434.058 14.6623C434.462 14.853 434.945 14.6796 435.136 14.2749C435.327 13.8702 435.153 13.3876 434.748 13.1969L434.058 14.6623ZM423.467 8.61964C423.045 8.47279 422.583 8.6963 422.436 9.11886C422.289 9.54142 422.513 10.003 422.936 10.1499L423.467 8.61964ZM411.374 6.70019C411.808 6.81014 412.249 6.54775 412.359 6.11412C412.469 5.68049 412.206 5.23983 411.773 5.12988L411.374 6.70019ZM399.944 2.58703C399.504 2.50818 399.083 2.80123 399.004 3.24157C398.925 3.68192 399.218 4.10281 399.658 4.18167L399.944 2.58703ZM387.84 2.44059C388.284 2.49275 388.687 2.17485 388.739 1.73055C388.791 1.28625 388.473 0.883794 388.029 0.831639L387.84 2.44059ZM18.4955 170.778C22.5236 171.188 26.5226 171.58 30.4926 171.953L30.6442 170.34C26.6785 169.967 22.6836 169.576 18.6596 169.166L18.4955 170.778ZM42.3152 173.018C46.4211 173.372 50.495 173.705 54.5372 174.019L54.6627 172.404C50.6251 172.091 46.5556 171.757 42.4541 171.404L42.3152 173.018ZM66.6677 174.91C70.6788 175.187 74.6578 175.445 78.6045 175.683L78.7022 174.066C74.7601 173.828 70.7859 173.571 66.7793 173.294L66.6677 174.91ZM90.6294 176.355C94.7439 176.566 98.8222 176.756 102.865 176.925L102.932 175.307C98.8951 175.138 94.8218 174.948 90.7125 174.737L90.6294 176.355ZM114.884 177.371C118.892 177.5 122.863 177.608 126.797 177.695L126.833 176.076C122.904 175.988 118.939 175.88 114.937 175.751L114.884 177.371ZM139.099 177.905C143.159 177.953 147.179 177.978 151.16 177.982L151.161 176.362C147.187 176.358 143.172 176.333 139.118 176.285L139.099 177.905ZM163.045 177.928C167.195 177.886 171.301 177.82 175.361 177.731L175.326 176.111C171.272 176.2 167.173 176.266 163.029 176.308L163.045 177.928ZM187.408 177.393C191.434 177.256 195.413 177.095 199.347 176.911L199.272 175.293C195.345 175.476 191.372 175.637 187.353 175.774L187.408 177.393ZM211.61 176.256C215.647 176.013 219.634 175.745 223.571 175.453L223.451 173.837C219.522 174.129 215.542 174.396 211.513 174.639L211.61 176.256ZM235.632 174.471C239.729 174.107 243.769 173.716 247.752 173.3L247.584 171.689C243.609 172.104 239.578 172.494 235.489 172.857L235.632 174.471ZM259.531 171.975C263.672 171.476 267.749 170.948 271.761 170.392L271.539 168.788C267.536 169.342 263.469 169.868 259.337 170.367L259.531 171.975ZM283.619 168.643C287.688 168.005 291.687 167.338 295.616 166.643L295.334 165.048C291.415 165.741 287.427 166.406 283.368 167.043L283.619 168.643ZM307.495 164.417C311.511 163.621 315.449 162.795 319.31 161.94L318.96 160.359C315.111 161.211 311.185 162.034 307.18 162.828L307.495 164.417ZM331.13 159.177C335.11 158.196 338.999 157.183 342.8 156.141L342.372 154.579C338.585 155.617 334.708 156.626 330.742 157.604L331.13 159.177ZM354.45 152.773C358.4 151.569 362.245 150.332 365.985 149.065L365.465 147.531C361.741 148.792 357.913 150.024 353.978 151.223L354.45 152.773ZM377.308 145.016C381.221 143.541 385.006 142.03 388.663 140.488L388.034 138.996C384.396 140.529 380.631 142.032 376.736 143.501L377.308 145.016ZM399.617 135.599C403.394 133.814 407.015 131.993 410.481 130.142L409.718 128.713C406.276 130.551 402.679 132.36 398.925 134.134L399.617 135.599ZM421.073 124.1C424.646 121.92 428.02 119.706 431.197 117.464L430.262 116.14C427.117 118.36 423.774 120.555 420.229 122.717L421.073 124.1ZM440.79 110.118C444.036 107.411 447.01 104.675 449.715 101.92L448.559 100.785C445.894 103.499 442.96 106.199 439.752 108.874L440.79 110.118ZM457.707 92.7207C460.309 89.2897 462.509 85.8465 464.309 82.411L462.874 81.6592C461.119 85.0085 458.969 88.3761 456.416 91.7415L457.707 92.7207ZM468.831 71.0286C469.939 66.932 470.472 62.8803 470.435 58.9105L468.815 58.9253C468.85 62.739 468.339 66.6434 467.267 70.6055L468.831 71.0286ZM468.476 46.8061C467.243 42.992 465.435 39.3133 463.068 35.808L461.725 36.7147C464.012 40.1006 465.751 43.6425 466.934 47.3043L468.476 46.8061ZM455.016 26.5024C452.185 23.8751 448.974 21.3927 445.394 19.0758L444.514 20.4359C448.022 22.7062 451.157 25.1317 453.915 27.6899L455.016 26.5024ZM434.748 13.1969C431.236 11.5417 427.474 10.012 423.467 8.61964L422.936 10.1499C426.892 11.5247 430.6 13.0331 434.058 14.6623L434.748 13.1969ZM411.773 5.12988C408.002 4.17385 404.058 3.32382 399.944 2.58703L399.658 4.18167C403.737 4.91202 407.643 5.75406 411.374 6.70019L411.773 5.12988ZM388.029 0.831639C385.999 0.593425 383.935 0.380378 381.835 0.193199L381.691 1.8068C383.776 1.99267 385.826 2.20417 387.84 2.44059L388.029 0.831639Z" fill="#C9D1D9"/>
</svg>
