<svg width="1225" height="178" viewBox="0 0 1225 178" fill="none" xmlns="http://www.w3.org/2000/svg">
<path d="M1135.8 0.596599C1135.58 0.576741 1135.38 0.74125 1135.36 0.964042C1135.34 1.18683 1135.5 1.38354 1135.73 1.4034L1135.8 0.596599ZM754.263 168L758.026 170.776L758.548 166.128L754.263 168ZM760.367 169.088C760.59 169.113 760.79 168.952 760.814 168.73C760.838 168.508 760.678 168.308 760.456 168.283L760.367 169.088ZM772.619 169.569C772.396 169.547 772.197 169.709 772.175 169.931C772.152 170.154 772.314 170.352 772.536 170.375L772.619 169.569ZM784.53 171.55C784.753 171.571 784.951 171.407 784.972 171.185C784.993 170.962 784.829 170.764 784.606 170.743L784.53 171.55ZM796.419 171.808C796.197 171.788 796 171.954 795.981 172.176C795.962 172.399 796.127 172.596 796.35 172.615L796.419 171.808ZM808.569 173.616C808.792 173.633 808.986 173.466 809.004 173.243C809.021 173.02 808.854 172.825 808.631 172.808L808.569 173.616ZM820.751 173.698C820.528 173.682 820.335 173.851 820.319 174.074C820.304 174.297 820.472 174.491 820.696 174.506L820.751 173.698ZM832.629 175.279C832.852 175.292 833.044 175.122 833.058 174.899C833.071 174.676 832.901 174.484 832.678 174.47L832.629 175.279ZM844.692 175.142C844.468 175.13 844.278 175.302 844.267 175.525C844.255 175.749 844.427 175.939 844.65 175.951L844.692 175.142ZM856.882 176.521C857.105 176.53 857.294 176.357 857.303 176.133C857.313 175.91 857.139 175.721 856.915 175.711L856.882 176.521ZM868.924 176.156C868.7 176.149 868.513 176.324 868.506 176.548C868.499 176.772 868.674 176.959 868.897 176.966L868.924 176.156ZM880.806 177.291C881.03 177.296 881.215 177.118 881.22 176.895C881.225 176.671 881.048 176.486 880.824 176.481L880.806 177.291ZM893.113 176.69C892.889 176.687 892.706 176.867 892.703 177.09C892.7 177.314 892.88 177.497 893.103 177.5L893.113 176.69ZM905.16 177.577C905.384 177.577 905.565 177.396 905.565 177.172C905.566 176.948 905.384 176.767 905.161 176.767L905.16 177.577ZM917.033 176.713C916.809 176.715 916.63 176.898 916.632 177.122C916.634 177.346 916.817 177.525 917.041 177.523L917.033 176.713ZM929.352 177.326C929.576 177.321 929.753 177.136 929.748 176.912C929.743 176.688 929.558 176.511 929.335 176.516L929.352 177.326ZM941.367 176.179C941.143 176.187 940.968 176.374 940.976 176.597C940.984 176.821 941.171 176.996 941.394 176.988L941.367 176.179ZM953.328 176.507C953.552 176.496 953.724 176.306 953.714 176.083C953.704 175.86 953.514 175.687 953.291 175.697L953.328 176.507ZM965.537 175.043C965.314 175.056 965.144 175.248 965.157 175.472C965.171 175.695 965.363 175.865 965.586 175.852L965.537 175.043ZM977.541 175.049C977.764 175.032 977.931 174.838 977.915 174.615C977.898 174.392 977.704 174.225 977.481 174.241L977.541 175.049ZM989.525 173.26C989.302 173.28 989.138 173.477 989.157 173.7C989.177 173.922 989.374 174.087 989.597 174.067L989.525 173.26ZM1001.71 172.897C1001.93 172.874 1002.09 172.675 1002.07 172.452C1002.05 172.23 1001.85 172.068 1001.63 172.091L1001.71 172.897ZM1013.39 170.769C1013.16 170.796 1013 170.997 1013.03 171.219C1013.06 171.441 1013.26 171.6 1013.48 171.573L1013.39 170.769ZM1025.71 169.991C1025.93 169.961 1026.08 169.756 1026.05 169.534C1026.02 169.313 1025.82 169.158 1025.59 169.189L1025.71 169.991ZM1037.43 167.443C1037.21 167.478 1037.06 167.685 1037.09 167.906C1037.13 168.127 1037.34 168.278 1037.56 168.243L1037.43 167.443ZM1049.55 166.244C1049.77 166.205 1049.91 165.995 1049.87 165.775C1049.83 165.555 1049.62 165.408 1049.4 165.447L1049.55 166.244ZM1061.26 163.225C1061.04 163.269 1060.9 163.482 1060.94 163.701C1060.98 163.921 1061.2 164.063 1061.42 164.02L1061.26 163.225ZM1073.22 161.545C1073.44 161.497 1073.58 161.28 1073.53 161.062C1073.48 160.844 1073.27 160.706 1073.05 160.754L1073.22 161.545ZM1084.84 157.997C1084.62 158.051 1084.49 158.27 1084.54 158.488C1084.6 158.705 1084.82 158.837 1085.03 158.784L1084.84 157.997ZM1096.69 155.75C1096.91 155.691 1097.04 155.469 1096.98 155.253C1096.92 155.037 1096.69 154.91 1096.48 154.969L1096.69 155.75ZM1108.1 151.61C1107.88 151.675 1107.76 151.902 1107.83 152.116C1107.89 152.33 1108.12 152.45 1108.33 152.385L1108.1 151.61ZM1119.85 148.681C1120.07 148.609 1120.18 148.38 1120.11 148.168C1120.04 147.956 1119.81 147.842 1119.59 147.914L1119.85 148.681ZM1130.88 143.88C1130.67 143.959 1130.56 144.192 1130.64 144.401C1130.72 144.611 1130.96 144.716 1131.17 144.638L1130.88 143.88ZM1142.51 140.115C1142.71 140.028 1142.81 139.791 1142.72 139.585C1142.63 139.379 1142.4 139.282 1142.19 139.369L1142.51 140.115ZM1153.1 134.501C1152.9 134.596 1152.81 134.838 1152.9 135.04C1153 135.242 1153.24 135.329 1153.44 135.233L1153.1 134.501ZM1164.29 129.785C1164.49 129.679 1164.56 129.434 1164.46 129.237C1164.35 129.039 1164.11 128.965 1163.91 129.07L1164.29 129.785ZM1174.44 123.062C1174.25 123.179 1174.19 123.428 1174.31 123.619C1174.42 123.81 1174.67 123.87 1174.86 123.754L1174.44 123.062ZM1184.96 117.133C1185.15 117.004 1185.19 116.751 1185.06 116.569C1184.93 116.386 1184.68 116.342 1184.5 116.471L1184.96 117.133ZM1194.01 109.185C1193.84 109.328 1193.82 109.583 1193.96 109.755C1194.1 109.927 1194.36 109.95 1194.53 109.807L1194.01 109.185ZM1203.43 101.636C1203.58 101.477 1203.58 101.22 1203.42 101.064C1203.26 100.907 1203 100.909 1202.85 101.069L1203.43 101.636ZM1210.74 91.9863C1210.6 92.1645 1210.64 92.4186 1210.82 92.5537C1210.99 92.6889 1211.25 92.6541 1211.38 92.4759L1210.74 91.9863ZM1217.95 82.223C1218.05 82.0249 1217.98 81.7802 1217.78 81.6764C1217.58 81.5725 1217.34 81.649 1217.23 81.8471L1217.95 82.223ZM1221.66 70.7113C1221.6 70.9272 1221.73 71.1496 1221.94 71.208C1222.16 71.2664 1222.38 71.1387 1222.44 70.9228L1221.66 70.7113ZM1224.03 58.9142C1224.03 58.6906 1223.85 58.5109 1223.62 58.5129C1223.4 58.515 1223.22 58.698 1223.22 58.9216L1224.03 58.9142ZM1221.32 47.1797C1221.39 47.3925 1221.62 47.5093 1221.83 47.4405C1222.04 47.3717 1222.16 47.1434 1222.09 46.9306L1221.32 47.1797ZM1216.73 36.0346C1216.61 35.8493 1216.35 35.8005 1216.17 35.9257C1215.98 36.0509 1215.94 36.3027 1216.06 36.488L1216.73 36.0346ZM1208.19 27.3931C1208.35 27.5452 1208.61 27.5356 1208.76 27.3716C1208.91 27.2076 1208.9 26.9514 1208.74 26.7993L1208.19 27.3931ZM1199.17 19.4159C1198.99 19.2943 1198.74 19.3481 1198.61 19.5359C1198.49 19.7236 1198.55 19.9744 1198.73 20.0959L1199.17 19.4159ZM1188.23 14.296C1188.43 14.3913 1188.67 14.3046 1188.77 14.1023C1188.86 13.8999 1188.78 13.6586 1188.58 13.5633L1188.23 14.296ZM1177.33 9.0022C1177.12 8.92877 1176.89 9.04053 1176.82 9.25181C1176.75 9.46309 1176.86 9.69389 1177.07 9.76731L1177.33 9.0022ZM1165.47 6.30762C1165.69 6.36259 1165.91 6.23139 1165.97 6.01458C1166.02 5.79776 1165.89 5.57744 1165.67 5.52246L1165.47 6.30762ZM1153.87 2.98569C1153.65 2.94627 1153.44 3.09279 1153.4 3.31296C1153.36 3.53314 1153.51 3.74358 1153.73 3.78301L1153.87 2.98569ZM1141.89 2.03835C1142.11 2.06443 1142.31 1.90548 1142.34 1.68333C1142.36 1.46118 1142.2 1.25995 1141.98 1.23388L1141.89 2.03835ZM757.84 168.809C758.684 168.903 759.526 168.996 760.367 169.088L760.456 168.283C759.615 168.191 758.773 168.098 757.93 168.004L757.84 168.809ZM772.536 170.375C776.564 170.785 780.562 171.177 784.53 171.55L784.606 170.743C780.64 170.371 776.644 169.979 772.619 169.569L772.536 170.375ZM796.35 172.615C800.455 172.968 804.528 173.302 808.569 173.616L808.631 172.808C804.593 172.494 800.522 172.161 796.419 171.808L796.35 172.615ZM820.696 174.506C824.706 174.783 828.683 175.041 832.629 175.279L832.678 174.47C828.735 174.232 824.759 173.975 820.751 173.698L820.696 174.506ZM844.65 175.951C848.763 176.162 852.84 176.352 856.882 176.521L856.915 175.711C852.877 175.542 848.802 175.353 844.692 175.142L844.65 175.951ZM868.897 176.966C872.903 177.095 876.873 177.203 880.806 177.291L880.824 176.481C876.894 176.393 872.927 176.285 868.924 176.156L868.897 176.966ZM893.103 177.5C897.162 177.548 901.181 177.573 905.16 177.577L905.161 176.767C901.185 176.763 897.169 176.738 893.113 176.69L893.103 177.5ZM917.041 177.523C921.19 177.481 925.293 177.415 929.352 177.326L929.335 176.516C925.279 176.605 921.178 176.671 917.033 176.713L917.041 177.523ZM941.394 176.988C945.418 176.851 949.396 176.69 953.328 176.507L953.291 175.697C949.362 175.881 945.387 176.042 941.367 176.179L941.394 176.988ZM965.586 175.852C969.621 175.608 973.606 175.341 977.541 175.049L977.481 174.241C973.55 174.533 969.569 174.8 965.537 175.043L965.586 175.852ZM989.597 174.067C993.691 173.703 997.729 173.313 1001.71 172.897L1001.63 172.091C997.649 172.507 993.616 172.897 989.525 173.26L989.597 174.067ZM1013.48 171.573C1017.62 171.074 1021.7 170.546 1025.71 169.991L1025.59 169.189C1021.59 169.743 1017.52 170.27 1013.39 170.769L1013.48 171.573ZM1037.56 168.243C1041.62 167.605 1045.62 166.939 1049.55 166.244L1049.4 165.447C1045.48 166.14 1041.49 166.806 1037.43 167.443L1037.56 168.243ZM1061.42 164.02C1065.43 163.224 1069.36 162.399 1073.22 161.545L1073.05 160.754C1069.2 161.607 1065.27 162.431 1061.26 163.225L1061.42 164.02ZM1085.03 158.784C1089.01 157.803 1092.9 156.792 1096.69 155.75L1096.48 154.969C1092.69 156.008 1088.81 157.018 1084.84 157.997L1085.03 158.784ZM1108.33 152.385C1112.28 151.183 1116.12 149.947 1119.85 148.681L1119.59 147.914C1115.87 149.177 1112.03 150.41 1108.1 151.61L1108.33 152.385ZM1131.17 144.638C1135.07 143.164 1138.85 141.655 1142.51 140.115L1142.19 139.369C1138.55 140.905 1134.78 142.409 1130.88 143.88L1131.17 144.638ZM1153.44 135.233C1157.22 133.45 1160.83 131.633 1164.29 129.785L1163.91 129.07C1160.46 130.912 1156.86 132.723 1153.1 134.501L1153.44 135.233ZM1174.86 123.754C1178.43 121.579 1181.79 119.369 1184.96 117.133L1184.5 116.471C1181.34 118.697 1177.99 120.896 1174.44 123.062L1174.86 123.754ZM1194.53 109.807C1197.77 107.108 1200.73 104.381 1203.43 101.636L1202.85 101.069C1200.17 103.793 1197.23 106.502 1194.01 109.185L1194.53 109.807ZM1211.38 92.4759C1213.97 89.0613 1216.16 85.637 1217.95 82.223L1217.23 81.8471C1215.47 85.218 1213.3 88.6045 1210.74 91.9863L1211.38 92.4759ZM1222.44 70.9228C1223.54 66.8599 1224.07 62.8449 1224.03 58.9142L1223.22 58.9216C1223.26 62.7743 1222.74 66.7156 1221.66 70.7113L1222.44 70.9228ZM1222.09 46.9306C1220.87 43.1546 1219.08 39.5101 1216.73 36.0346L1216.06 36.488C1218.37 39.9037 1220.12 43.4799 1221.32 47.1797L1222.09 46.9306ZM1208.74 26.7993C1205.93 24.1892 1202.74 21.7211 1199.17 19.4159L1198.73 20.0959C1202.26 22.3778 1205.41 24.8175 1208.19 27.3931L1208.74 26.7993ZM1188.58 13.5633C1185.08 11.9146 1181.33 10.3902 1177.33 9.0022L1177.07 9.76731C1181.04 11.1466 1184.76 12.6603 1188.23 14.296L1188.58 13.5633ZM1165.67 5.52246C1161.91 4.5689 1157.98 3.72087 1153.87 2.98569L1153.73 3.78301C1157.82 4.51497 1161.73 5.35901 1165.47 6.30762L1165.67 5.52246ZM1141.98 1.23388C1139.96 0.996112 1137.89 0.78345 1135.8 0.596599L1135.73 1.4034C1137.82 1.58959 1139.87 1.80148 1141.89 2.03835L1141.98 1.23388ZM1135.83 0.193199C1135.39 0.153481 1135 0.482501 1134.96 0.928085C1134.92 1.37367 1135.25 1.76708 1135.69 1.8068L1135.83 0.193199ZM754.263 168L761.795 173.545L762.831 164.25L754.263 168ZM760.323 169.491C760.768 169.54 761.168 169.219 761.217 168.774C761.265 168.329 760.944 167.929 760.5 167.881L760.323 169.491ZM772.66 169.166C772.215 169.121 771.817 169.445 771.772 169.89C771.726 170.335 772.05 170.733 772.495 170.778L772.66 169.166ZM784.493 171.953C784.938 171.995 785.333 171.668 785.375 171.223C785.417 170.777 785.09 170.382 784.644 170.34L784.493 171.953ZM796.454 171.404C796.008 171.366 795.616 171.696 795.578 172.142C795.539 172.587 795.869 172.98 796.315 173.018L796.454 171.404ZM808.537 174.019C808.983 174.054 809.373 173.721 809.407 173.275C809.442 172.829 809.109 172.439 808.663 172.404L808.537 174.019ZM820.779 173.294C820.333 173.263 819.946 173.6 819.915 174.046C819.885 174.492 820.221 174.879 820.668 174.91L820.779 173.294ZM832.605 175.683C833.051 175.71 833.435 175.37 833.462 174.923C833.489 174.477 833.149 174.093 832.702 174.066L832.605 175.683ZM844.713 174.737C844.266 174.714 843.885 175.058 843.862 175.505C843.839 175.951 844.183 176.332 844.629 176.355L844.713 174.737ZM856.865 176.925C857.312 176.944 857.689 176.597 857.708 176.15C857.727 175.703 857.379 175.326 856.932 175.307L856.865 176.925ZM868.937 175.751C868.489 175.737 868.115 176.088 868.101 176.535C868.087 176.982 868.437 177.356 868.884 177.371L868.937 175.751ZM880.797 177.695C881.244 177.705 881.615 177.351 881.625 176.904C881.635 176.456 881.281 176.086 880.833 176.076L880.797 177.695ZM893.118 176.285C892.67 176.28 892.303 176.638 892.298 177.086C892.293 177.533 892.651 177.9 893.099 177.905L893.118 176.285ZM905.16 177.982C905.607 177.982 905.97 177.62 905.97 177.172C905.971 176.725 905.608 176.362 905.161 176.362L905.16 177.982ZM917.029 176.308C916.581 176.312 916.222 176.679 916.227 177.126C916.231 177.573 916.598 177.932 917.045 177.928L917.029 176.308ZM929.361 177.731C929.809 177.721 930.163 177.35 930.153 176.903C930.143 176.456 929.773 176.101 929.326 176.111L929.361 177.731ZM941.353 175.774C940.906 175.789 940.556 176.164 940.571 176.611C940.586 177.058 940.961 177.408 941.408 177.393L941.353 175.774ZM953.347 176.911C953.794 176.89 954.139 176.511 954.119 176.064C954.098 175.617 953.719 175.272 953.272 175.293L953.347 176.911ZM965.513 174.639C965.066 174.666 964.726 175.049 964.753 175.496C964.78 175.943 965.164 176.283 965.61 176.256L965.513 174.639ZM977.571 175.453C978.017 175.42 978.352 175.031 978.319 174.585C978.286 174.139 977.897 173.804 977.451 173.837L977.571 175.453ZM989.489 172.857C989.043 172.897 988.714 173.29 988.754 173.736C988.794 174.181 989.187 174.51 989.632 174.471L989.489 172.857ZM1001.75 173.3C1002.2 173.253 1002.52 172.855 1002.47 172.41C1002.43 171.965 1002.03 171.642 1001.58 171.689L1001.75 173.3ZM1013.34 170.367C1012.89 170.42 1012.58 170.824 1012.63 171.268C1012.68 171.712 1013.09 172.029 1013.53 171.975L1013.34 170.367ZM1025.76 170.392C1026.2 170.331 1026.51 169.922 1026.45 169.479C1026.39 169.036 1025.98 168.726 1025.54 168.788L1025.76 170.392ZM1037.37 167.043C1036.93 167.112 1036.62 167.527 1036.69 167.969C1036.76 168.41 1037.18 168.713 1037.62 168.643L1037.37 167.043ZM1049.62 166.643C1050.06 166.565 1050.35 166.145 1050.27 165.705C1050.19 165.264 1049.77 164.97 1049.33 165.048L1049.62 166.643ZM1061.18 162.828C1060.74 162.915 1060.46 163.341 1060.54 163.78C1060.63 164.219 1061.06 164.504 1061.49 164.417L1061.18 162.828ZM1073.31 161.94C1073.75 161.844 1074.02 161.411 1073.93 160.975C1073.83 160.538 1073.4 160.262 1072.96 160.359L1073.31 161.94ZM1084.74 157.604C1084.31 157.711 1084.04 158.15 1084.15 158.585C1084.26 159.019 1084.7 159.284 1085.13 159.177L1084.74 157.604ZM1096.8 156.141C1097.23 156.023 1097.49 155.577 1097.37 155.146C1097.25 154.714 1096.8 154.46 1096.37 154.579L1096.8 156.141ZM1107.98 151.223C1107.55 151.353 1107.31 151.806 1107.44 152.234C1107.57 152.662 1108.02 152.903 1108.45 152.773L1107.98 151.223ZM1119.98 149.065C1120.41 148.921 1120.64 148.461 1120.49 148.038C1120.35 147.614 1119.89 147.387 1119.46 147.531L1119.98 149.065ZM1130.74 143.501C1130.32 143.659 1130.11 144.126 1130.26 144.544C1130.42 144.963 1130.89 145.174 1131.31 145.016L1130.74 143.501ZM1142.66 140.488C1143.08 140.315 1143.27 139.839 1143.09 139.427C1142.92 139.015 1142.45 138.822 1142.03 138.996L1142.66 140.488ZM1152.92 134.134C1152.52 134.326 1152.35 134.808 1152.54 135.213C1152.73 135.617 1153.21 135.79 1153.62 135.599L1152.92 134.134ZM1164.48 130.142C1164.88 129.931 1165.02 129.44 1164.81 129.046C1164.6 128.651 1164.11 128.502 1163.72 128.713L1164.48 130.142ZM1174.23 122.717C1173.85 122.95 1173.73 123.448 1173.96 123.83C1174.19 124.212 1174.69 124.333 1175.07 124.1L1174.23 122.717ZM1185.2 117.464C1185.56 117.206 1185.65 116.701 1185.39 116.335C1185.13 115.97 1184.63 115.882 1184.26 116.14L1185.2 117.464ZM1193.75 108.874C1193.41 109.16 1193.36 109.671 1193.65 110.015C1193.94 110.358 1194.45 110.404 1194.79 110.118L1193.75 108.874ZM1203.71 101.92C1204.03 101.601 1204.02 101.088 1203.7 100.775C1203.38 100.461 1202.87 100.466 1202.56 100.785L1203.71 101.92ZM1210.42 91.7415C1210.15 92.0979 1210.22 92.606 1210.57 92.8764C1210.93 93.1468 1211.44 93.0771 1211.71 92.7207L1210.42 91.7415ZM1218.31 82.411C1218.52 82.0147 1218.36 81.5252 1217.97 81.3176C1217.57 81.11 1217.08 81.2629 1216.87 81.6592L1218.31 82.411ZM1221.27 70.6055C1221.15 71.0373 1221.41 71.4821 1221.84 71.5989C1222.27 71.7157 1222.71 71.4604 1222.83 71.0286L1221.27 70.6055ZM1224.44 58.9105C1224.43 58.4632 1224.07 58.1039 1223.62 58.108C1223.17 58.112 1222.81 58.478 1222.82 58.9253L1224.44 58.9105ZM1220.93 47.3043C1221.07 47.7299 1221.53 47.9635 1221.95 47.8259C1222.38 47.6883 1222.61 47.2317 1222.48 46.8061L1220.93 47.3043ZM1217.07 35.808C1216.82 35.4372 1216.31 35.3397 1215.94 35.5901C1215.57 35.8405 1215.47 36.344 1215.73 36.7147L1217.07 35.808ZM1207.91 27.6899C1208.24 27.9942 1208.76 27.975 1209.06 27.6471C1209.36 27.3191 1209.34 26.8066 1209.02 26.5024L1207.91 27.6899ZM1199.39 19.0758C1199.02 18.8328 1198.52 18.9403 1198.27 19.3158C1198.03 19.6914 1198.14 20.1929 1198.51 20.4359L1199.39 19.0758ZM1188.06 14.6623C1188.46 14.853 1188.95 14.6796 1189.14 14.2749C1189.33 13.8702 1189.15 13.3876 1188.75 13.1969L1188.06 14.6623ZM1177.47 8.61964C1177.04 8.47279 1176.58 8.6963 1176.44 9.11886C1176.29 9.54142 1176.51 10.003 1176.94 10.1499L1177.47 8.61964ZM1165.37 6.70019C1165.81 6.81014 1166.25 6.54775 1166.36 6.11412C1166.47 5.68049 1166.21 5.23983 1165.77 5.12988L1165.37 6.70019ZM1153.94 2.58703C1153.5 2.50818 1153.08 2.80123 1153 3.24157C1152.92 3.68192 1153.22 4.10281 1153.66 4.18167L1153.94 2.58703ZM1141.84 2.44059C1142.28 2.49275 1142.69 2.17485 1142.74 1.73055C1142.79 1.28625 1142.47 0.883794 1142.03 0.831639L1141.84 2.44059ZM772.495 170.778C776.524 171.188 780.523 171.58 784.493 171.953L784.644 170.34C780.678 169.967 776.684 169.576 772.66 169.166L772.495 170.778ZM796.315 173.018C800.421 173.372 804.495 173.705 808.537 174.019L808.663 172.404C804.625 172.091 800.556 171.757 796.454 171.404L796.315 173.018ZM820.668 174.91C824.679 175.187 828.658 175.445 832.605 175.683L832.702 174.066C828.76 173.828 824.786 173.571 820.779 173.294L820.668 174.91ZM844.629 176.355C848.744 176.566 852.822 176.756 856.865 176.925L856.932 175.307C852.895 175.138 848.822 174.948 844.713 174.737L844.629 176.355ZM868.884 177.371C872.892 177.5 876.863 177.608 880.797 177.695L880.833 176.076C876.904 175.988 872.939 175.88 868.937 175.751L868.884 177.371ZM893.099 177.905C897.159 177.953 901.179 177.978 905.16 177.982L905.161 176.362C901.187 176.358 897.172 176.333 893.118 176.285L893.099 177.905ZM917.045 177.928C921.195 177.886 925.301 177.82 929.361 177.731L929.326 176.111C925.272 176.2 921.173 176.266 917.029 176.308L917.045 177.928ZM941.408 177.393C945.434 177.256 949.413 177.095 953.347 176.911L953.272 175.293C949.345 175.476 945.372 175.637 941.353 175.774L941.408 177.393ZM965.61 176.256C969.647 176.013 973.634 175.745 977.571 175.453L977.451 173.837C973.522 174.129 969.542 174.396 965.513 174.639L965.61 176.256ZM989.632 174.471C993.729 174.107 997.769 173.716 1001.75 173.3L1001.58 171.689C997.609 172.104 993.578 172.494 989.489 172.857L989.632 174.471ZM1013.53 171.975C1017.67 171.476 1021.75 170.948 1025.76 170.392L1025.54 168.788C1021.54 169.342 1017.47 169.868 1013.34 170.367L1013.53 171.975ZM1037.62 168.643C1041.69 168.005 1045.69 167.338 1049.62 166.643L1049.33 165.048C1045.42 165.741 1041.43 166.406 1037.37 167.043L1037.62 168.643ZM1061.49 164.417C1065.51 163.621 1069.45 162.795 1073.31 161.94L1072.96 160.359C1069.11 161.211 1065.18 162.034 1061.18 162.828L1061.49 164.417ZM1085.13 159.177C1089.11 158.196 1093 157.183 1096.8 156.141L1096.37 154.579C1092.58 155.617 1088.71 156.626 1084.74 157.604L1085.13 159.177ZM1108.45 152.773C1112.4 151.569 1116.24 150.332 1119.98 149.065L1119.46 147.531C1115.74 148.792 1111.91 150.024 1107.98 151.223L1108.45 152.773ZM1131.31 145.016C1135.22 143.541 1139.01 142.03 1142.66 140.488L1142.03 138.996C1138.4 140.529 1134.63 142.032 1130.74 143.501L1131.31 145.016ZM1153.62 135.599C1157.39 133.814 1161.02 131.993 1164.48 130.142L1163.72 128.713C1160.28 130.551 1156.68 132.36 1152.92 134.134L1153.62 135.599ZM1175.07 124.1C1178.65 121.92 1182.02 119.706 1185.2 117.464L1184.26 116.14C1181.12 118.36 1177.77 120.555 1174.23 122.717L1175.07 124.1ZM1194.79 110.118C1198.04 107.411 1201.01 104.675 1203.71 101.92L1202.56 100.785C1199.89 103.499 1196.96 106.199 1193.75 108.874L1194.79 110.118ZM1211.71 92.7207C1214.31 89.2897 1216.51 85.8465 1218.31 82.411L1216.87 81.6592C1215.12 85.0085 1212.97 88.3761 1210.42 91.7415L1211.71 92.7207ZM1222.83 71.0286C1223.94 66.932 1224.47 62.8803 1224.44 58.9105L1222.82 58.9253C1222.85 62.739 1222.34 66.6434 1221.27 70.6055L1222.83 71.0286ZM1222.48 46.8061C1221.24 42.992 1219.44 39.3133 1217.07 35.808L1215.73 36.7147C1218.01 40.1006 1219.75 43.6425 1220.93 47.3043L1222.48 46.8061ZM1209.02 26.5024C1206.18 23.8751 1202.97 21.3927 1199.39 19.0758L1198.51 20.4359C1202.02 22.7062 1205.16 25.1317 1207.91 27.6899L1209.02 26.5024ZM1188.75 13.1969C1185.24 11.5417 1181.47 10.012 1177.47 8.61964L1176.94 10.1499C1180.89 11.5247 1184.6 13.0331 1188.06 14.6623L1188.75 13.1969ZM1165.77 5.12988C1162 4.17385 1158.06 3.32382 1153.94 2.58703L1153.66 4.18167C1157.74 4.91202 1161.64 5.75406 1165.37 6.70019L1165.77 5.12988ZM1142.03 0.831639C1140 0.593425 1137.93 0.380378 1135.83 0.193199L1135.69 1.8068C1137.78 1.99267 1139.83 2.20417 1141.84 2.44059L1142.03 0.831639Z" fill="#C9D1D9"/>
<path d="M91.7626 17.405C91.9863 17.405 92.1676 17.2237 92.1676 17C92.1676 16.7763 91.9863 16.595 91.7626 16.595V17.405ZM442.263 162.696L438.214 160.356L438.212 165.033L442.263 162.696ZM85.6931 16.9283C85.4707 16.9514 85.309 17.1505 85.3321 17.373C85.3552 17.5955 85.5542 17.7571 85.7767 17.734L85.6931 16.9283ZM73.9025 19.8474C74.1198 19.7946 74.2532 19.5756 74.2004 19.3582C74.1476 19.1409 73.9286 19.0075 73.7112 19.0603L73.9025 19.8474ZM61.9782 22.5405C61.7669 22.614 61.6552 22.8448 61.7286 23.0561C61.8021 23.2674 62.0329 23.3791 62.2442 23.3056L61.9782 22.5405ZM50.9678 27.7642C51.1722 27.6735 51.2645 27.4342 51.1738 27.2297C51.0831 27.0253 50.8438 26.933 50.6394 27.0237L50.9678 27.7642ZM39.6983 32.4203C39.5019 32.5275 39.4297 32.7736 39.5369 32.9699C39.6441 33.1662 39.8901 33.2385 40.0864 33.1313L39.6983 32.4203ZM29.72 39.4078C29.9057 39.2831 29.9551 39.0315 29.8303 38.8458C29.7056 38.6602 29.4539 38.6108 29.2683 38.7355L29.72 39.4078ZM19.5132 46.0949C19.343 46.2401 19.3228 46.4957 19.4679 46.6659C19.6131 46.8361 19.8687 46.8563 20.0389 46.7112L19.5132 46.0949ZM11.4472 55.2238C11.5922 55.0535 11.5717 54.7979 11.4013 54.6529C11.231 54.5079 10.9754 54.5285 10.8304 54.6988L11.4472 55.2238ZM4.01247 64.846C3.91343 65.0466 3.99572 65.2895 4.19627 65.3885C4.39682 65.4875 4.63969 65.4053 4.73873 65.2047L4.01247 64.846ZM1.47255 76.6457C1.48866 76.4226 1.32087 76.2287 1.09778 76.2126C0.874683 76.1965 0.680768 76.3643 0.664657 76.5874L1.47255 76.6457ZM2.60892 88.6428C2.693 88.8501 2.92919 88.9499 3.13646 88.8658C3.34373 88.7817 3.44359 88.5455 3.3595 88.3383L2.60892 88.6428ZM9.74274 98.3593C9.59487 98.1915 9.33895 98.1753 9.17113 98.3232C9.0033 98.471 8.98712 98.727 9.13499 98.8948L9.74274 98.3593ZM18.1194 107.063C18.2982 107.197 18.5521 107.161 18.6864 106.982C18.8207 106.804 18.7846 106.55 18.6058 106.415L18.1194 107.063ZM28.7242 112.976C28.5296 112.866 28.2825 112.934 28.1722 113.129C28.0619 113.323 28.1303 113.57 28.3249 113.681L28.7242 112.976ZM39.1903 119.191C39.3938 119.284 39.634 119.194 39.7269 118.991C39.8198 118.787 39.7302 118.547 39.5267 118.454L39.1903 119.191ZM50.8616 123.178C50.6526 123.098 50.4186 123.203 50.3388 123.412C50.2591 123.621 50.3638 123.855 50.5728 123.935L50.8616 123.178ZM61.9432 127.955C62.1557 128.025 62.3846 127.909 62.4543 127.697C62.5241 127.484 62.4083 127.255 62.1958 127.186L61.9432 127.955ZM73.6952 130.713C73.4802 130.652 73.2559 130.776 73.1942 130.991C73.1325 131.206 73.2567 131.43 73.4717 131.492L73.6952 130.713ZM85.4934 134.731C85.7102 134.786 85.9305 134.655 85.9854 134.438C86.0402 134.221 85.909 134.001 85.6921 133.946L85.4934 134.731ZM97.1764 136.696C96.9582 136.646 96.7413 136.783 96.6919 137.001C96.6424 137.219 96.7792 137.436 96.9974 137.486L97.1764 136.696ZM109.216 140.106C109.436 140.151 109.649 140.009 109.694 139.79C109.738 139.571 109.597 139.357 109.377 139.312L109.216 140.106ZM120.96 141.551C120.74 141.51 120.529 141.656 120.489 141.876C120.448 142.096 120.594 142.307 120.814 142.347L120.96 141.551ZM132.968 144.475C133.189 144.511 133.397 144.362 133.434 144.142C133.471 143.921 133.322 143.712 133.101 143.676L132.968 144.475ZM144.993 145.566C144.772 145.532 144.566 145.684 144.532 145.906C144.499 146.127 144.651 146.333 144.872 146.367L144.993 145.566ZM156.817 148.097C157.038 148.128 157.243 147.973 157.273 147.751C157.304 147.53 157.149 147.325 156.928 147.295L156.817 148.097ZM169.355 148.936C169.133 148.908 168.931 149.065 168.903 149.287C168.875 149.509 169.032 149.711 169.254 149.739L169.355 148.936ZM180.914 151.146C181.136 151.172 181.337 151.012 181.363 150.79C181.389 150.568 181.229 150.367 181.007 150.341L180.914 151.146ZM193.134 151.68C192.911 151.657 192.712 151.818 192.688 152.041C192.665 152.263 192.826 152.463 193.049 152.486L193.134 151.68ZM205.435 153.735C205.657 153.757 205.855 153.594 205.877 153.371C205.898 153.148 205.735 152.95 205.512 152.929L205.435 153.735ZM217.243 154.011C217.02 153.991 216.823 154.156 216.804 154.379C216.784 154.601 216.949 154.798 217.171 154.818L217.243 154.011ZM229.308 155.841C229.531 155.859 229.726 155.693 229.744 155.47C229.762 155.247 229.596 155.052 229.373 155.034L229.308 155.841ZM241.909 155.997C241.686 155.98 241.492 156.148 241.475 156.371C241.459 156.594 241.627 156.788 241.85 156.804L241.909 155.997ZM253.578 157.624C253.801 157.639 253.994 157.47 254.009 157.247C254.024 157.024 253.855 156.831 253.632 156.816L253.578 157.624ZM265.648 157.581C265.424 157.567 265.233 157.737 265.219 157.96C265.205 158.184 265.375 158.376 265.599 158.389L265.648 157.581ZM277.963 159.101C278.186 159.113 278.377 158.942 278.389 158.719C278.401 158.495 278.23 158.304 278.007 158.292L277.963 159.101ZM290.234 158.926C290.01 158.915 289.82 159.087 289.809 159.311C289.799 159.534 289.971 159.724 290.194 159.735L290.234 158.926ZM302.027 160.286C302.25 160.296 302.439 160.123 302.449 159.899C302.459 159.676 302.286 159.487 302.062 159.477L302.027 160.286ZM314.183 159.981C313.96 159.973 313.772 160.147 313.763 160.37C313.754 160.594 313.928 160.782 314.152 160.791L314.183 159.981ZM326.572 161.248C326.796 161.256 326.983 161.081 326.991 160.857C326.999 160.634 326.824 160.446 326.6 160.439L326.572 161.248ZM338.767 160.831C338.544 160.825 338.357 161 338.35 161.224C338.344 161.448 338.519 161.634 338.743 161.641L338.767 160.831ZM350.596 161.973C350.82 161.979 351.006 161.803 351.012 161.579C351.018 161.355 350.841 161.17 350.618 161.164L350.596 161.973ZM362.721 161.455C362.497 161.45 362.312 161.627 362.307 161.851C362.302 162.074 362.48 162.259 362.703 162.264L362.721 161.455ZM375.065 162.513C375.289 162.517 375.474 162.339 375.478 162.116C375.482 161.892 375.304 161.707 375.08 161.703L375.065 162.513ZM387.495 161.906C387.271 161.903 387.087 162.082 387.084 162.305C387.08 162.529 387.259 162.713 387.483 162.716L387.495 161.906ZM399.268 162.867C399.492 162.87 399.675 162.69 399.678 162.467C399.68 162.243 399.501 162.06 399.277 162.057L399.268 162.867ZM411.281 162.171C411.057 162.17 410.874 162.35 410.872 162.573C410.871 162.797 411.05 162.98 411.274 162.981L411.281 162.171ZM423.502 163.058C423.725 163.059 423.908 162.879 423.909 162.655C423.91 162.431 423.729 162.249 423.505 162.248L423.502 163.058ZM435.954 162.287C435.73 162.286 435.549 162.467 435.548 162.691C435.548 162.915 435.729 163.096 435.953 163.097L435.954 162.287ZM91.7626 16.595C89.8436 16.595 87.8132 16.7084 85.6931 16.9283L85.7767 17.734C87.8728 17.5166 89.8751 17.405 91.7626 17.405V16.595ZM73.7112 19.0603C69.9083 19.9844 65.968 21.1532 61.9782 22.5405L62.2442 23.3056C66.2114 21.9261 70.1267 20.7649 73.9025 19.8474L73.7112 19.0603ZM50.6394 27.0237C46.9423 28.6634 43.2723 30.4689 39.6983 32.4203L40.0864 33.1313C43.6403 31.1909 47.2904 29.3951 50.9678 27.7642L50.6394 27.0237ZM29.2683 38.7355C25.8111 41.0585 22.533 43.5192 19.5132 46.0949L20.0389 46.7112C23.0326 44.1577 26.2855 41.7155 29.72 39.4078L29.2683 38.7355ZM10.8304 54.6988C8.05029 57.9651 5.73429 61.3595 4.01247 64.846L4.73873 65.2047C6.42578 61.7886 8.70182 58.4493 11.4472 55.2238L10.8304 54.6988ZM0.664657 76.5874C0.377046 80.5701 0.971229 84.606 2.60892 88.6428L3.3595 88.3383C1.76853 84.4166 1.19386 80.5049 1.47255 76.6457L0.664657 76.5874ZM9.13499 98.8948C11.5576 101.644 14.5355 104.372 18.1194 107.063L18.6058 106.415C15.0593 103.752 12.1236 101.062 9.74274 98.3593L9.13499 98.8948ZM28.3249 113.681C31.6119 115.543 35.2275 117.382 39.1903 119.191L39.5267 118.454C35.583 116.654 31.9887 114.826 28.7242 112.976L28.3249 113.681ZM50.5728 123.935C54.1402 125.296 57.9274 126.637 61.9432 127.955L62.1958 127.186C58.1912 125.871 54.4161 124.535 50.8616 123.178L50.5728 123.935ZM73.4717 131.492C77.3008 132.591 81.3061 133.671 85.4934 134.731L85.6921 133.946C81.5126 132.888 77.5156 131.81 73.6952 130.713L73.4717 131.492ZM96.9974 137.486C100.927 138.376 104.999 139.25 109.216 140.106L109.377 139.312C105.166 138.457 101.1 137.585 97.1764 136.696L96.9974 137.486ZM120.814 142.347C124.749 143.071 128.8 143.78 132.968 144.475L133.101 143.676C128.937 142.982 124.891 142.274 120.96 141.551L120.814 142.347ZM144.872 146.367C148.759 146.956 152.74 147.533 156.817 148.097L156.928 147.295C152.854 146.731 148.877 146.155 144.993 145.566L144.872 146.367ZM169.254 149.739C173.063 150.219 176.949 150.688 180.914 151.146L181.007 150.341C177.045 149.884 173.161 149.415 169.355 148.936L169.254 149.739ZM193.049 152.486C197.099 152.914 201.228 153.33 205.435 153.735L205.512 152.929C201.308 152.524 197.182 152.108 193.134 151.68L193.049 152.486ZM217.171 154.818C221.15 155.169 225.195 155.51 229.308 155.841L229.373 155.034C225.262 154.703 221.219 154.362 217.243 154.011L217.171 154.818ZM241.85 156.804C245.703 157.086 249.612 157.36 253.578 157.624L253.632 156.816C249.668 156.552 245.76 156.278 241.909 155.997L241.85 156.804ZM265.599 158.389C269.663 158.635 273.784 158.873 277.963 159.101L278.007 158.292C273.829 158.064 269.71 157.827 265.648 157.581L265.599 158.389ZM290.194 159.735C294.09 159.926 298.034 160.11 302.027 160.286L302.062 159.477C298.071 159.301 294.128 159.117 290.234 158.926L290.194 159.735ZM314.152 160.791C318.242 160.951 322.382 161.104 326.572 161.248L326.6 160.439C322.412 160.294 318.273 160.142 314.183 159.981L314.152 160.791ZM338.743 161.641C342.652 161.759 346.603 161.869 350.596 161.973L350.618 161.164C346.625 161.06 342.676 160.949 338.767 160.831L338.743 161.641ZM362.703 162.264C366.781 162.354 370.902 162.437 375.065 162.513L375.08 161.703C370.918 161.627 366.798 161.545 362.721 161.455L362.703 162.264ZM387.483 162.716C391.375 162.773 395.303 162.823 399.268 162.867L399.277 162.057C395.313 162.013 391.386 161.963 387.495 161.906L387.483 162.716ZM411.274 162.981C415.313 163.013 419.389 163.039 423.502 163.058L423.505 162.248C419.393 162.229 415.318 162.203 411.281 162.171L411.274 162.981ZM435.953 163.097C436.839 163.098 437.727 163.099 438.617 163.1L438.618 162.29C437.728 162.289 436.84 162.288 435.954 162.287L435.953 163.097ZM91.7626 17.81C92.21 17.81 92.5726 17.4474 92.5726 17C92.5726 16.5526 92.21 16.19 91.7626 16.19V17.81ZM442.263 162.696L434.166 158.014L434.159 167.367L442.263 162.696ZM85.6513 16.5255C85.2064 16.5717 84.8831 16.9698 84.9293 17.4148C84.9754 17.8597 85.3736 18.183 85.8185 18.1369L85.6513 16.5255ZM73.9981 20.2409C74.4328 20.1353 74.6996 19.6973 74.5939 19.2626C74.4883 18.8279 74.0503 18.5611 73.6156 18.6667L73.9981 20.2409ZM61.8451 22.158C61.4226 22.3049 61.1992 22.7666 61.3461 23.1891C61.493 23.6116 61.9547 23.8351 62.3772 23.6881L61.8451 22.158ZM51.1319 28.1344C51.5409 27.953 51.7254 27.4745 51.544 27.0655C51.3626 26.6566 50.8841 26.4721 50.4752 26.6535L51.1319 28.1344ZM39.5042 32.0649C39.1115 32.2792 38.967 32.7713 39.1814 33.164C39.3958 33.5566 39.8879 33.7011 40.2805 33.4867L39.5042 32.0649ZM29.9459 39.744C30.3172 39.4945 30.416 38.9913 30.1665 38.6199C29.917 38.2486 29.4137 38.1499 29.0424 38.3994L29.9459 39.744ZM19.2504 45.7868C18.91 46.0771 18.8695 46.5883 19.1598 46.9287C19.4501 47.2691 19.9613 47.3096 20.3017 47.0193L19.2504 45.7868ZM11.7556 55.4863C12.0456 55.1457 12.0045 54.6345 11.6638 54.3445C11.3232 54.0546 10.812 54.0957 10.522 54.4363L11.7556 55.4863ZM3.64934 64.6667C3.45125 65.0678 3.61583 65.5536 4.01694 65.7516C4.41804 65.9497 4.90378 65.7851 5.10187 65.384L3.64934 64.6667ZM1.8765 76.6749C1.90872 76.2287 1.57314 75.8409 1.12695 75.8087C0.68076 75.7765 0.292931 76.112 0.260709 76.5582L1.8765 76.6749ZM2.23363 88.795C2.4018 89.2096 2.87418 89.4093 3.28871 89.2411C3.70325 89.0729 3.90297 88.6006 3.73479 88.186L2.23363 88.795ZM10.0466 98.0916C9.75088 97.7559 9.23904 97.7235 8.90339 98.0193C8.56773 98.315 8.53537 98.8269 8.83111 99.1625L10.0466 98.0916ZM17.8762 107.387C18.2339 107.656 18.7417 107.583 19.0103 107.226C19.2789 106.868 19.2067 106.36 18.8489 106.092L17.8762 107.387ZM28.9239 112.623C28.5347 112.403 28.0404 112.54 27.8198 112.929C27.5993 113.318 27.736 113.812 28.1252 114.033L28.9239 112.623ZM39.0221 119.56C39.429 119.745 39.9095 119.566 40.0953 119.159C40.2811 118.752 40.1019 118.272 39.6949 118.086L39.0221 119.56ZM51.006 122.8C50.5881 122.64 50.1199 122.85 49.9604 123.268C49.8009 123.686 50.0104 124.154 50.4284 124.313L51.006 122.8ZM61.8169 128.34C62.242 128.48 62.6996 128.248 62.8391 127.823C62.9786 127.398 62.7471 126.94 62.3221 126.801L61.8169 128.34ZM73.8069 130.324C73.3769 130.201 72.9283 130.449 72.8049 130.879C72.6815 131.309 72.93 131.758 73.36 131.881L73.8069 130.324ZM85.394 135.124C85.8277 135.234 86.2682 134.971 86.378 134.537C86.4877 134.104 86.2252 133.663 85.7915 133.553L85.394 135.124ZM97.2659 136.301C96.8296 136.202 96.3957 136.475 96.2969 136.912C96.198 137.348 96.4716 137.782 96.9079 137.881L97.2659 136.301ZM109.136 140.503C109.574 140.592 110.002 140.309 110.091 139.87C110.18 139.432 109.896 139.005 109.458 138.916L109.136 140.503ZM121.033 141.152C120.593 141.071 120.171 141.362 120.09 141.802C120.009 142.242 120.3 142.665 120.74 142.746L121.033 141.152ZM132.901 144.874C133.343 144.948 133.76 144.649 133.833 144.208C133.907 143.767 133.609 143.35 133.168 143.276L132.901 144.874ZM145.054 145.165C144.612 145.098 144.199 145.403 144.132 145.845C144.065 146.287 144.369 146.7 144.811 146.767L145.054 145.165ZM156.761 148.498C157.204 148.56 157.613 148.25 157.675 147.807C157.736 147.364 157.426 146.955 156.983 146.894L156.761 148.498ZM169.406 148.534C168.962 148.478 168.557 148.792 168.501 149.236C168.445 149.68 168.76 150.085 169.203 150.141L169.406 148.534ZM180.868 151.548C181.312 151.6 181.714 151.281 181.765 150.836C181.817 150.392 181.498 149.99 181.054 149.939L180.868 151.548ZM193.176 151.278C192.731 151.231 192.333 151.553 192.286 151.998C192.239 152.443 192.561 152.842 193.006 152.889L193.176 151.278ZM205.396 154.138C205.841 154.181 206.237 153.855 206.28 153.41C206.323 152.965 205.997 152.569 205.551 152.526L205.396 154.138ZM217.278 153.607C216.833 153.568 216.439 153.897 216.4 154.343C216.361 154.789 216.69 155.182 217.136 155.221L217.278 153.607ZM229.275 156.245C229.721 156.281 230.112 155.948 230.148 155.503C230.184 155.057 229.851 154.666 229.406 154.63L229.275 156.245ZM241.938 155.593C241.492 155.56 241.104 155.895 241.072 156.341C241.039 156.788 241.374 157.176 241.82 157.208L241.938 155.593ZM253.551 158.028C253.998 158.058 254.384 157.721 254.413 157.274C254.443 156.828 254.105 156.442 253.659 156.412L253.551 158.028ZM265.672 157.176C265.226 157.149 264.842 157.489 264.815 157.936C264.788 158.382 265.128 158.766 265.574 158.793L265.672 157.176ZM277.94 159.505C278.387 159.53 278.769 159.187 278.793 158.741C278.818 158.294 278.475 157.912 278.029 157.888L277.94 159.505ZM290.254 158.521C289.807 158.5 289.427 158.844 289.405 159.291C289.383 159.738 289.727 160.118 290.174 160.14L290.254 158.521ZM302.009 160.691C302.456 160.71 302.834 160.364 302.854 159.917C302.873 159.47 302.527 159.092 302.08 159.072L302.009 160.691ZM314.199 159.577C313.752 159.559 313.376 159.907 313.358 160.354C313.341 160.801 313.689 161.178 314.136 161.196L314.199 159.577ZM326.558 161.653C327.005 161.668 327.38 161.318 327.396 160.871C327.411 160.424 327.061 160.049 326.614 160.034L326.558 161.653ZM338.78 160.427C338.332 160.413 337.959 160.765 337.946 161.212C337.932 161.659 338.284 162.032 338.731 162.046L338.78 160.427ZM350.586 162.378C351.033 162.39 351.405 162.037 351.417 161.59C351.428 161.142 351.075 160.77 350.628 160.759L350.586 162.378ZM362.73 161.05C362.283 161.04 361.912 161.394 361.902 161.842C361.892 162.289 362.247 162.659 362.694 162.669L362.73 161.05ZM375.058 162.918C375.505 162.926 375.874 162.57 375.883 162.123C375.891 161.676 375.535 161.306 375.087 161.298L375.058 162.918ZM387.5 161.501C387.053 161.495 386.685 161.852 386.679 162.299C386.672 162.747 387.03 163.115 387.477 163.121L387.5 161.501ZM399.264 163.272C399.711 163.277 400.078 162.919 400.083 162.471C400.088 162.024 399.729 161.657 399.282 161.652L399.264 163.272ZM411.284 161.766C410.836 161.763 410.471 162.123 410.467 162.57C410.464 163.017 410.824 163.383 411.271 163.386L411.284 161.766ZM423.5 163.463C423.947 163.465 424.311 163.104 424.314 162.657C424.316 162.209 423.955 161.845 423.507 161.843L423.5 163.463ZM435.955 161.882C435.507 161.881 435.144 162.243 435.143 162.69C435.143 163.138 435.505 163.501 435.952 163.502L435.955 161.882ZM91.7626 16.19C89.8279 16.19 87.7834 16.3043 85.6513 16.5255L85.8185 18.1369C87.9026 17.9206 89.8908 17.81 91.7626 17.81V16.19ZM73.6156 18.6667C69.7991 19.5942 65.8463 20.7667 61.8451 22.158L62.3772 23.6881C66.3331 22.3126 70.2359 21.1551 73.9981 20.2409L73.6156 18.6667ZM50.4752 26.6535C46.7682 28.2975 43.0882 30.108 39.5042 32.0649L40.2805 33.4867C43.8243 31.5518 47.4644 29.7609 51.1319 28.1344L50.4752 26.6535ZM29.0424 38.3994C25.5738 40.7299 22.2832 43.1999 19.2504 45.7868L20.3017 47.0193C23.2823 44.477 26.5228 42.044 29.9459 39.744L29.0424 38.3994ZM10.522 54.4363C7.72452 57.723 5.38854 61.145 3.64934 64.6667L5.10187 65.384C6.77152 62.0032 9.02759 58.6914 11.7556 55.4863L10.522 54.4363ZM0.260709 76.5582C-0.0313623 80.6027 0.572577 84.7007 2.23363 88.795L3.73479 88.186C2.16719 84.322 1.60227 80.4723 1.8765 76.6749L0.260709 76.5582ZM8.83111 99.1625C11.2746 101.936 14.2737 104.682 17.8762 107.387L18.8489 106.092C15.3212 103.443 12.4066 100.77 10.0466 98.0916L8.83111 99.1625ZM28.1252 114.033C31.4235 115.902 35.0497 117.746 39.0221 119.56L39.6949 118.086C35.7608 116.29 32.177 114.467 28.9239 112.623L28.1252 114.033ZM50.4284 124.313C54.0022 125.677 57.7954 127.02 61.8169 128.34L62.3221 126.801C58.3231 125.488 54.5541 124.154 51.006 122.8L50.4284 124.313ZM73.36 131.881C77.1933 132.982 81.2028 134.063 85.394 135.124L85.7915 133.553C81.6159 132.496 77.623 131.419 73.8069 130.324L73.36 131.881ZM96.9079 137.881C100.841 138.772 104.916 139.646 109.136 140.503L109.458 138.916C105.249 138.061 101.186 137.189 97.2659 136.301L96.9079 137.881ZM120.74 142.746C124.678 143.47 128.731 144.18 132.901 144.874L133.168 143.276C129.006 142.583 124.962 141.875 121.033 141.152L120.74 142.746ZM144.811 146.767C148.7 147.357 152.683 147.934 156.761 148.498L156.983 146.894C152.911 146.33 148.936 145.754 145.054 145.165L144.811 146.767ZM169.203 150.141C173.013 150.621 176.901 151.09 180.868 151.548L181.054 149.939C177.092 149.481 173.21 149.013 169.406 148.534L169.203 150.141ZM193.006 152.889C197.058 153.317 201.188 153.733 205.396 154.138L205.551 152.526C201.348 152.121 197.223 151.705 193.176 151.278L193.006 152.889ZM217.136 155.221C221.115 155.572 225.162 155.914 229.275 156.245L229.406 154.63C225.296 154.299 221.254 153.958 217.278 153.607L217.136 155.221ZM241.82 157.208C245.674 157.49 249.584 157.764 253.551 158.028L253.659 156.412C249.695 156.148 245.789 155.874 241.938 155.593L241.82 157.208ZM265.574 158.793C269.639 159.04 273.761 159.277 277.94 159.505L278.029 157.888C273.852 157.659 269.734 157.422 265.672 157.176L265.574 158.793ZM290.174 160.14C294.071 160.331 298.015 160.515 302.009 160.691L302.08 159.072C298.089 158.896 294.147 158.713 290.254 158.521L290.174 160.14ZM314.136 161.196C318.227 161.356 322.368 161.509 326.558 161.653L326.614 160.034C322.426 159.89 318.288 159.737 314.199 159.577L314.136 161.196ZM338.731 162.046C342.641 162.163 346.592 162.274 350.586 162.378L350.628 160.759C346.637 160.655 342.687 160.544 338.78 160.427L338.731 162.046ZM362.694 162.669C366.773 162.759 370.894 162.842 375.058 162.918L375.087 161.298C370.925 161.223 366.806 161.14 362.73 161.05L362.694 162.669ZM387.477 163.121C391.369 163.178 395.298 163.228 399.264 163.272L399.282 161.652C395.318 161.608 391.391 161.558 387.5 161.501L387.477 163.121ZM411.271 163.386C415.31 163.418 419.386 163.444 423.5 163.463L423.507 161.843C419.396 161.824 415.321 161.798 411.284 161.766L411.271 163.386Z" fill="#C9D1D9"/>
</svg>
